<?xml version="1.0" standalone="no"?>
  <!DOCTYPE svg PUBLIC "-//W3C//DTD SVG 1.1//EN" "http://www.w3.org/Graphics/SVG/1.1/DTD/svg11.dtd" >
  <svg>
  <metadata>
  Created by font-carrier
  </metadata>
  <defs>
  <font id="SofiaSans-Regular" horiz-adv-x="1381" vert-adv-y="1381" >
    <font-face
      
      font-family="Sofia Sans"
      
      font-weight="400"
      
      font-stretch="normal"
      
      units-per-em="1000"
      
      ascent="800"
      
      descent="-200"
      
    />
      <missing-glyph />

      

      
      <glyph glyph-name="uni41" unicode="&#x41;" d="M9 0Q-2 0 1 11L222 647Q225 655 234 655L323 655Q332 655 335 647L559 11Q561 6 558.50 3Q556 0 551 0L480 0Q471 0 468 8L318 458Q308 488 298 518Q288 548 277 578L276 578Q266 549 256 519.50Q246 490 236 461L88 8Q85 0 76 0L9 0M120 153L141 227L413 227L435 153L120 153Z"  horiz-adv-x="560" vert-adv-y="1000"  />

      
      <glyph glyph-name="unic1" unicode="&#xc1;" d="M9 0Q-2 0 1 11L222 647Q225 655 234 655L323 655Q332 655 335 647L559 11Q561 6 558.50 3Q556 0 551 0L480 0Q471 0 468 8L318 458Q308 488 298 518Q288 548 277 578L276 578Q266 549 256 519.50Q246 490 236 461L88 8Q85 0 76 0L9 0M120 153L141 227L413 227L435 153L120 153M232 710Q227 710 226 713Q225 716 227 720L283 822Q287 829 293 829L366 829Q371 829 372.50 825.50Q374 822 371 817L299 716Q295 710 288 710L232 710Z"  horiz-adv-x="560" vert-adv-y="1000"  />

      
      <glyph glyph-name="uni0102" unicode="&#x0102;" d="M9 0Q-2 0 1 11L222 647Q225 655 234 655L323 655Q332 655 335 647L559 11Q561 6 558.50 3Q556 0 551 0L480 0Q471 0 468 8L318 458Q308 488 298 518Q288 548 277 578L276 578Q266 549 256 519.50Q246 490 236 461L88 8Q85 0 76 0L9 0M120 153L141 227L413 227L435 153L120 153M279 716Q234 716 197.50 731.50Q161 747 148 756Q142 761 142 768L142 823Q142 829 145 831Q148 833 153 830Q172 820 206.50 803.50Q241 787 279 787Q317 787 351.50 803.50Q386 820 405 830Q410 833 413 831Q416 829 416 823L416 768Q416 761 410 756Q397 747 360.50 731.50Q324 716 279 716Z"  horiz-adv-x="560" vert-adv-y="1000"  />

      
      <glyph glyph-name="unic2" unicode="&#xc2;" d="M9 0Q-2 0 1 11L222 647Q225 655 234 655L323 655Q332 655 335 647L559 11Q561 6 558.50 3Q556 0 551 0L480 0Q471 0 468 8L318 458Q308 488 298 518Q288 548 277 578L276 578Q266 549 256 519.50Q246 490 236 461L88 8Q85 0 76 0L9 0M120 153L141 227L413 227L435 153L120 153M150 718Q139 713 139 724L139 774Q139 781 146 784L272 840Q279 844 286 840L412 784Q419 781 419 774L419 724Q419 713 408 718L279 764L150 718Z"  horiz-adv-x="560" vert-adv-y="1000"  />

      
      <glyph glyph-name="unic4" unicode="&#xc4;" d="M9 0Q-2 0 1 11L222 647Q225 655 234 655L323 655Q332 655 335 647L559 11Q561 6 558.50 3Q556 0 551 0L480 0Q471 0 468 8L318 458Q308 488 298 518Q288 548 277 578L276 578Q266 549 256 519.50Q246 490 236 461L88 8Q85 0 76 0L9 0M120 153L141 227L413 227L435 153L120 153M195 711Q167 711 155 725.50Q143 740 143 762L143 772Q143 795 155 809Q167 823 195 823Q223 823 235 809Q247 795 247 772L247 762Q247 740 235 725.50Q223 711 195 711M363 711Q335 711 323 725.50Q311 740 311 762L311 772Q311 795 323 809Q335 823 363 823Q391 823 403 809Q415 795 415 772L415 762Q415 740 403 725.50Q391 711 363 711Z"  horiz-adv-x="560" vert-adv-y="1000"  />

      
      <glyph glyph-name="unic0" unicode="&#xc0;" d="M9 0Q-2 0 1 11L222 647Q225 655 234 655L323 655Q332 655 335 647L559 11Q561 6 558.50 3Q556 0 551 0L480 0Q471 0 468 8L318 458Q308 488 298 518Q288 548 277 578L276 578Q266 549 256 519.50Q246 490 236 461L88 8Q85 0 76 0L9 0M120 153L141 227L413 227L435 153L120 153M270 710Q263 710 259 716L187 817Q184 822 185.50 825.50Q187 829 192 829L265 829Q272 829 275 822L331 720Q333 716 332 713Q331 710 326 710L270 710Z"  horiz-adv-x="560" vert-adv-y="1000"  />

      
      <glyph glyph-name="uni0100" unicode="&#x0100;" d="M9 0Q-2 0 1 11L222 647Q225 655 234 655L323 655Q332 655 335 647L559 11Q561 6 558.50 3Q556 0 551 0L480 0Q471 0 468 8L318 458Q308 488 298 518Q288 548 277 578L276 578Q266 549 256 519.50Q246 490 236 461L88 8Q85 0 76 0L9 0M120 153L141 227L413 227L435 153L120 153M171 717Q161 717 161 727L161 779Q161 789 171 789L386 789Q396 789 396 779L396 727Q396 717 386 717L171 717Z"  horiz-adv-x="560" vert-adv-y="1000"  />

      
      <glyph glyph-name="uni0104" unicode="&#x0104;" d="M9 0Q-2 0 1 11L222 647Q225 655 234 655L323 655Q332 655 335 647L559 11Q561 6 558.50 3Q556 0 551 0L480 0Q471 0 468 8L318 458Q308 488 298 518Q288 548 277 578L276 578Q266 549 256 519.50Q246 490 236 461L88 8Q85 0 76 0L9 0M120 153L141 227L413 227L435 153L120 153M515-197Q464-197 440-174.50Q416-152 416-116L416-104Q416-63 446-28.50Q476 6 526 23L546 12L546 1Q518-13 503-37Q488-61 488-87L488-97Q488-116 497.50-125Q507-134 529-134Q537-134 542.50-134Q548-134 554-133Q563-132 563-140L563-184Q563-188 561.50-190.50Q560-193 555-194Q545-195 534.50-196Q524-197 515-197Z"  horiz-adv-x="560" vert-adv-y="1000"  />

      
      <glyph glyph-name="unic5" unicode="&#xc5;" d="M559 11Q561 6 558.50 3Q556 0 551 0L480 0Q471 0 468 8L420 153L135 153L88 8Q85 0 76 0L9 0Q-2 0 1 11L213 622Q192 634 180.50 654.50Q169 675 169 703Q169 750 199 774.50Q229 799 280 799Q330 799 360.50 774.50Q391 750 391 703Q391 674 379 653Q367 632 344 621L559 11M229 703Q229 683 240.50 670Q252 657 280 657Q308 657 319.50 670Q331 683 331 703Q331 723 319.50 736Q308 749 280 749Q252 749 240.50 736Q229 723 229 703M160 227L395 227L318 458Q308 488 298 518Q288 548 277 578L276 578Q266 549 256 519.50Q246 490 236 461L160 227Z"  horiz-adv-x="560" vert-adv-y="1000"  />

      
      <glyph glyph-name="unic3" unicode="&#xc3;" d="M9 0Q-2 0 1 11L222 647Q225 655 234 655L323 655Q332 655 335 647L559 11Q561 6 558.50 3Q556 0 551 0L480 0Q471 0 468 8L318 458Q308 488 298 518Q288 548 277 578L276 578Q266 549 256 519.50Q246 490 236 461L88 8Q85 0 76 0L9 0M120 153L141 227L413 227L435 153L120 153M335 719Q313 719 295.50 725.50Q278 732 261 738Q244 744 223 744Q202 744 182.50 737.50Q163 731 152 725Q140 718 140 731L140 778Q140 788 146 791Q157 796 176 806Q195 816 226 816Q253 816 270.50 810Q288 804 303 797.50Q318 791 337 791Q358 791 377.50 797.50Q397 804 408 810Q420 817 420 804L420 757Q420 753 418.50 749.50Q417 746 414 744Q404 737 384.50 728Q365 719 335 719Z"  horiz-adv-x="560" vert-adv-y="1000"  />

      
      <glyph glyph-name="unic6" unicode="&#xc6;" d="M9 0Q4 0 1.50 3.50Q-1 7 2 12L332 648Q336 655 344 655L752 655Q762 655 762 645L762 588Q762 578 752 578L471 578L471 370L728 370Q738 370 738 360L738 306Q738 296 728 296L471 296L471 77L752 77Q762 77 762 67L762 10Q762 0 752 0L396 0Q386 0 386 10L386 153L164 153L90 7Q88 3 85 1.50Q82 0 78 0L9 0M202 227L386 227L386 500Q386 523 386 542.50Q386 562 387 593L385 593Q375 571 364 548.50Q353 526 342 503L202 227Z"  horiz-adv-x="834" vert-adv-y="1000"  />

      
      <glyph glyph-name="uni42" unicode="&#x42;" d="M95 0Q85 0 85 10L85 645Q85 655 95 655L273 655Q387 655 443.50 614.50Q500 574 500 491Q500 437 474 403.50Q448 370 389 348L389 346Q459 333 493.50 291Q528 249 528 180Q528 88 466.50 44Q405 0 274 0L95 0M170 74L273 74Q365 74 404 100Q443 126 443 186Q443 248 403.50 276.50Q364 305 276 305L170 305L170 74M170 374L269 374Q345 374 380 399.50Q415 425 415 480Q415 536 379.50 559Q344 582 260 582L170 582L170 374Z"  horiz-adv-x="573" vert-adv-y="1000"  />

      
      <glyph glyph-name="uni43" unicode="&#x43;" d="M320-12Q198-12 135.50 49Q73 110 73 223L73 432Q73 545 136.50 606Q200 667 321 667Q398 667 456.50 640.50Q515 614 544.50 564.50Q574 515 564 446Q563 441 561 436.50Q559 432 553 432L488 432Q477 432 479 442Q482 514 441.50 553Q401 592 322 592Q243 592 200.50 551Q158 510 158 433L158 222Q158 145 200.50 104Q243 63 322 63Q401 63 444 102.50Q487 142 479 213Q477 223 488 223L552 223Q562 223 564 209Q570 142 540.50 92.50Q511 43 454 15.50Q397-12 320-12Z"  horiz-adv-x="633" vert-adv-y="1000"  />

      
      <glyph glyph-name="uni0106" unicode="&#x0106;" d="M320-12Q198-12 135.50 49Q73 110 73 223L73 432Q73 545 136.50 606Q200 667 321 667Q398 667 456.50 640.50Q515 614 544.50 564.50Q574 515 564 446Q563 441 561 436.50Q559 432 553 432L488 432Q477 432 479 442Q482 514 441.50 553Q401 592 322 592Q243 592 200.50 551Q158 510 158 433L158 222Q158 145 200.50 104Q243 63 322 63Q401 63 444 102.50Q487 142 479 213Q477 223 488 223L552 223Q562 223 564 209Q570 142 540.50 92.50Q511 43 454 15.50Q397-12 320-12M270 710Q265 710 264 713Q263 716 265 720L321 822Q325 829 331 829L404 829Q409 829 410.50 825.50Q412 822 409 817L337 716Q333 710 326 710L270 710Z"  horiz-adv-x="633" vert-adv-y="1000"  />

      
      <glyph glyph-name="uni010C" unicode="&#x010C;" d="M320-12Q198-12 135.50 49Q73 110 73 223L73 432Q73 545 136.50 606Q200 667 321 667Q398 667 456.50 640.50Q515 614 544.50 564.50Q574 515 564 446Q563 441 561 436.50Q559 432 553 432L488 432Q477 432 479 442Q482 514 441.50 553Q401 592 322 592Q243 592 200.50 551Q158 510 158 433L158 222Q158 145 200.50 104Q243 63 322 63Q401 63 444 102.50Q487 142 479 213Q477 223 488 223L552 223Q562 223 564 209Q570 142 540.50 92.50Q511 43 454 15.50Q397-12 320-12M310 718L184 774Q180 776 178.50 778Q177 780 177 784L177 834Q177 845 188 840L317 794L446 840Q457 845 457 834L457 784Q457 780 455.50 778Q454 776 450 774L324 718Q317 715 310 718Z"  horiz-adv-x="633" vert-adv-y="1000"  />

      
      <glyph glyph-name="unic7" unicode="&#xc7;" d="M320-12Q198-12 135.50 49Q73 110 73 223L73 432Q73 545 136.50 606Q200 667 321 667Q398 667 456.50 640.50Q515 614 544.50 564.50Q574 515 564 446Q563 441 561 436.50Q559 432 553 432L488 432Q477 432 479 442Q482 514 441.50 553Q401 592 322 592Q243 592 200.50 551Q158 510 158 433L158 222Q158 145 200.50 104Q243 63 322 63Q401 63 444 102.50Q487 142 479 213Q477 223 488 223L552 223Q562 223 564 209Q570 142 540.50 92.50Q511 43 454 15.50Q397-12 320-12M307-197Q297-197 287-196Q277-195 266-193Q258-192 258-185L258-148Q258-140 266-141Q273-142 281-142.50Q289-143 294-143Q316-143 325.50-136Q335-129 335-119L335-106Q335-91 326.50-85.50Q318-80 301-80L278-80Q271-80 271-73Q271-68 271.50-62.50Q272-57 273-53L296 22Q298 28 305 28L353 28Q361 28 358 17L340-41L349-41Q375-41 388.50-58.50Q402-76 402-105L402-120Q402-160 378.50-178.50Q355-197 307-197Z"  horiz-adv-x="633" vert-adv-y="1000"  />

      
      <glyph glyph-name="uni010A" unicode="&#x010A;" d="M320-12Q198-12 135.50 49Q73 110 73 223L73 432Q73 545 136.50 606Q200 667 321 667Q398 667 456.50 640.50Q515 614 544.50 564.50Q574 515 564 446Q563 441 561 436.50Q559 432 553 432L488 432Q477 432 479 442Q482 514 441.50 553Q401 592 322 592Q243 592 200.50 551Q158 510 158 433L158 222Q158 145 200.50 104Q243 63 322 63Q401 63 444 102.50Q487 142 479 213Q477 223 488 223L552 223Q562 223 564 209Q570 142 540.50 92.50Q511 43 454 15.50Q397-12 320-12M317 725Q288 725 275 740.50Q262 756 262 780L262 790Q262 814 275 829.50Q288 845 317 845Q346 845 359 829.50Q372 814 372 790L372 780Q372 756 359 740.50Q346 725 317 725Z"  horiz-adv-x="633" vert-adv-y="1000"  />

      
      <glyph glyph-name="uni44" unicode="&#x44;" d="M95 0Q85 0 85 10L85 645Q85 655 95 655L270 655Q424 655 500 583.50Q576 512 576 367L576 317Q576 157 500.50 78.50Q425 0 270 0L95 0M170 72L264 72Q381 72 436 130Q491 188 491 311L491 373Q491 481 436 532Q381 583 264 583L170 583L170 72Z"  horiz-adv-x="641" vert-adv-y="1000"  />

      
      <glyph glyph-name="unid0" unicode="&#xd0;" d="M15 298Q5 298 5 308L5 358Q5 368 15 368L85 368L317 368Q327 368 327 358L327 308Q327 298 317 298L15 298M95 0Q85 0 85 10L85 645Q85 655 95 655L270 655Q424 655 500 583.50Q576 512 576 367L576 317Q576 157 500.50 78.50Q425 0 270 0L95 0M170 72L264 72Q381 72 436 130Q491 188 491 311L491 373Q491 481 436 532Q381 583 264 583L170 583L170 72Z"  horiz-adv-x="641" vert-adv-y="1000"  />

      
      <glyph glyph-name="uni010E" unicode="&#x010E;" d="M95 0Q85 0 85 10L85 645Q85 655 95 655L270 655Q424 655 500 583.50Q576 512 576 367L576 317Q576 157 500.50 78.50Q425 0 270 0L95 0M170 72L264 72Q381 72 436 130Q491 188 491 311L491 373Q491 481 436 532Q381 583 264 583L170 583L170 72M286 718L160 774Q156 776 154.50 778Q153 780 153 784L153 834Q153 845 164 840L293 794L422 840Q433 845 433 834L433 784Q433 780 431.50 778Q430 776 426 774L300 718Q293 715 286 718Z"  horiz-adv-x="641" vert-adv-y="1000"  />

      
      <glyph glyph-name="uni0110" unicode="&#x0110;" d="M15 298Q5 298 5 308L5 358Q5 368 15 368L85 368L317 368Q327 368 327 358L327 308Q327 298 317 298L15 298M95 0Q85 0 85 10L85 645Q85 655 95 655L270 655Q424 655 500 583.50Q576 512 576 367L576 317Q576 157 500.50 78.50Q425 0 270 0L95 0M170 72L264 72Q381 72 436 130Q491 188 491 311L491 373Q491 481 436 532Q381 583 264 583L170 583L170 72Z"  horiz-adv-x="641" vert-adv-y="1000"  />

      
      <glyph glyph-name="uni45" unicode="&#x45;" d="M95 0Q85 0 85 10L85 645Q85 655 95 655L451 655Q461 655 461 645L461 588Q461 578 451 578L170 578L170 370L427 370Q437 370 437 360L437 306Q437 296 427 296L170 296L170 77L451 77Q461 77 461 67L461 10Q461 0 451 0L95 0Z"  horiz-adv-x="533" vert-adv-y="1000"  />

      
      <glyph glyph-name="unic9" unicode="&#xc9;" d="M95 0Q85 0 85 10L85 645Q85 655 95 655L451 655Q461 655 461 645L461 588Q461 578 451 578L170 578L170 370L427 370Q437 370 437 360L437 306Q437 296 427 296L170 296L170 77L451 77Q461 77 461 67L461 10Q461 0 451 0L95 0M233 710Q228 710 227 713Q226 716 228 720L284 822Q288 829 294 829L367 829Q372 829 373.50 825.50Q375 822 372 817L300 716Q296 710 289 710L233 710Z"  horiz-adv-x="533" vert-adv-y="1000"  />

      
      <glyph glyph-name="uni011A" unicode="&#x011A;" d="M95 0Q85 0 85 10L85 645Q85 655 95 655L451 655Q461 655 461 645L461 588Q461 578 451 578L170 578L170 370L427 370Q437 370 437 360L437 306Q437 296 427 296L170 296L170 77L451 77Q461 77 461 67L461 10Q461 0 451 0L95 0M273 718L147 774Q143 776 141.50 778Q140 780 140 784L140 834Q140 845 151 840L280 794L409 840Q420 845 420 834L420 784Q420 780 418.50 778Q417 776 413 774L287 718Q280 715 273 718Z"  horiz-adv-x="533" vert-adv-y="1000"  />

      
      <glyph glyph-name="unica" unicode="&#xca;" d="M95 0Q85 0 85 10L85 645Q85 655 95 655L451 655Q461 655 461 645L461 588Q461 578 451 578L170 578L170 370L427 370Q437 370 437 360L437 306Q437 296 427 296L170 296L170 77L451 77Q461 77 461 67L461 10Q461 0 451 0L95 0M151 718Q140 713 140 724L140 774Q140 781 147 784L273 840Q280 844 287 840L413 784Q420 781 420 774L420 724Q420 713 409 718L280 764L151 718Z"  horiz-adv-x="533" vert-adv-y="1000"  />

      
      <glyph glyph-name="unicb" unicode="&#xcb;" d="M95 0Q85 0 85 10L85 645Q85 655 95 655L451 655Q461 655 461 645L461 588Q461 578 451 578L170 578L170 370L427 370Q437 370 437 360L437 306Q437 296 427 296L170 296L170 77L451 77Q461 77 461 67L461 10Q461 0 451 0L95 0M196 711Q168 711 156 725.50Q144 740 144 762L144 772Q144 795 156 809Q168 823 196 823Q224 823 236 809Q248 795 248 772L248 762Q248 740 236 725.50Q224 711 196 711M364 711Q336 711 324 725.50Q312 740 312 762L312 772Q312 795 324 809Q336 823 364 823Q392 823 404 809Q416 795 416 772L416 762Q416 740 404 725.50Q392 711 364 711Z"  horiz-adv-x="533" vert-adv-y="1000"  />

      
      <glyph glyph-name="uni0116" unicode="&#x0116;" d="M95 0Q85 0 85 10L85 645Q85 655 95 655L451 655Q461 655 461 645L461 588Q461 578 451 578L170 578L170 370L427 370Q437 370 437 360L437 306Q437 296 427 296L170 296L170 77L451 77Q461 77 461 67L461 10Q461 0 451 0L95 0M280 725Q251 725 238 740.50Q225 756 225 780L225 790Q225 814 238 829.50Q251 845 280 845Q309 845 322 829.50Q335 814 335 790L335 780Q335 756 322 740.50Q309 725 280 725Z"  horiz-adv-x="533" vert-adv-y="1000"  />

      
      <glyph glyph-name="unic8" unicode="&#xc8;" d="M95 0Q85 0 85 10L85 645Q85 655 95 655L451 655Q461 655 461 645L461 588Q461 578 451 578L170 578L170 370L427 370Q437 370 437 360L437 306Q437 296 427 296L170 296L170 77L451 77Q461 77 461 67L461 10Q461 0 451 0L95 0M271 710Q264 710 260 716L188 817Q185 822 186.50 825.50Q188 829 193 829L266 829Q273 829 276 822L332 720Q334 716 333 713Q332 710 327 710L271 710Z"  horiz-adv-x="533" vert-adv-y="1000"  />

      
      <glyph glyph-name="uni0112" unicode="&#x0112;" d="M95 0Q85 0 85 10L85 645Q85 655 95 655L451 655Q461 655 461 645L461 588Q461 578 451 578L170 578L170 370L427 370Q437 370 437 360L437 306Q437 296 427 296L170 296L170 77L451 77Q461 77 461 67L461 10Q461 0 451 0L95 0M172 717Q162 717 162 727L162 779Q162 789 172 789L387 789Q397 789 397 779L397 727Q397 717 387 717L172 717Z"  horiz-adv-x="533" vert-adv-y="1000"  />

      
      <glyph glyph-name="uni0118" unicode="&#x0118;" d="M95 0Q85 0 85 10L85 645Q85 655 95 655L451 655Q461 655 461 645L461 588Q461 578 451 578L170 578L170 370L427 370Q437 370 437 360L437 306Q437 296 427 296L170 296L170 77L451 77Q461 77 461 67L461 10Q461 0 451 0L95 0M401-197Q350-197 326-174.50Q302-152 302-116L302-104Q302-63 332-28.50Q362 6 412 23L432 12L432 1Q404-13 389-37Q374-61 374-87L374-97Q374-116 383.50-125Q393-134 415-134Q423-134 428.50-134Q434-134 440-133Q449-132 449-140L449-184Q449-188 447.50-190.50Q446-193 441-194Q431-195 420.50-196Q410-197 401-197Z"  horiz-adv-x="533" vert-adv-y="1000"  />

      
      <glyph glyph-name="uni46" unicode="&#x46;" d="M95 0Q85 0 85 10L85 645Q85 655 95 655L451 655Q461 655 461 645L461 588Q461 578 451 578L170 578L170 360L413 360Q423 360 423 350L423 296Q423 286 413 286L170 286L170 10Q170 0 160 0L95 0Z"  horiz-adv-x="504" vert-adv-y="1000"  />

      
      <glyph glyph-name="uni47" unicode="&#x47;" d="M306-12Q233-12 181 16Q129 44 101 96.50Q73 149 73 223L73 432Q73 542 140 604.50Q207 667 324 667Q403 667 460.50 640.50Q518 614 546.50 566Q575 518 565 452Q564 442 554 442L489 442Q478 442 480 452Q483 498 466 529Q449 560 414 576Q379 592 326 592Q243 592 200.50 552Q158 512 158 433L158 222Q158 142 198 102.50Q238 63 319 63Q402 63 445.50 104Q489 145 489 222L489 260L333 260Q323 260 323 270L323 324Q323 334 333 334L558 334Q563 334 565.50 331.50Q568 329 568 324L568 127Q568 96 569.50 67.50Q571 39 575 11Q576 6 573.50 3Q571 0 566 0L513 0Q509 0 506 2Q503 4 502 8Q500 21 498 37Q496 53 495 71L494 71Q475 43 446.50 24.50Q418 6 382.50-3Q347-12 306-12Z"  horiz-adv-x="653" vert-adv-y="1000"  />

      
      <glyph glyph-name="uni011E" unicode="&#x011E;" d="M306-12Q233-12 181 16Q129 44 101 96.50Q73 149 73 223L73 432Q73 542 140 604.50Q207 667 324 667Q403 667 460.50 640.50Q518 614 546.50 566Q575 518 565 452Q564 442 554 442L489 442Q478 442 480 452Q483 498 466 529Q449 560 414 576Q379 592 326 592Q243 592 200.50 552Q158 512 158 433L158 222Q158 142 198 102.50Q238 63 319 63Q402 63 445.50 104Q489 145 489 222L489 260L333 260Q323 260 323 270L323 324Q323 334 333 334L558 334Q563 334 565.50 331.50Q568 329 568 324L568 127Q568 96 569.50 67.50Q571 39 575 11Q576 6 573.50 3Q571 0 566 0L513 0Q509 0 506 2Q503 4 502 8Q500 21 498 37Q496 53 495 71L494 71Q475 43 446.50 24.50Q418 6 382.50-3Q347-12 306-12M310 716Q265 716 228.50 731.50Q192 747 179 756Q173 761 173 768L173 823Q173 829 176 831Q179 833 184 830Q203 820 237.50 803.50Q272 787 310 787Q348 787 382.50 803.50Q417 820 436 830Q441 833 444 831Q447 829 447 823L447 768Q447 761 441 756Q428 747 391.50 731.50Q355 716 310 716Z"  horiz-adv-x="653" vert-adv-y="1000"  />

      
      <glyph glyph-name="uni0122" unicode="&#x0122;" d="M306-12Q233-12 181 16Q129 44 101 96.50Q73 149 73 223L73 432Q73 542 140 604.50Q207 667 324 667Q403 667 460.50 640.50Q518 614 546.50 566Q575 518 565 452Q564 442 554 442L489 442Q478 442 480 452Q483 498 466 529Q449 560 414 576Q379 592 326 592Q243 592 200.50 552Q158 512 158 433L158 222Q158 142 198 102.50Q238 63 319 63Q402 63 445.50 104Q489 145 489 222L489 260L333 260Q323 260 323 270L323 324Q323 334 333 334L558 334Q563 334 565.50 331.50Q568 329 568 324L568 127Q568 96 569.50 67.50Q571 39 575 11Q576 6 573.50 3Q571 0 566 0L513 0Q509 0 506 2Q503 4 502 8Q500 21 498 37Q496 53 495 71L494 71Q475 43 446.50 24.50Q418 6 382.50-3Q347-12 306-12M292-231Q285-231 286-222L302-155Q286-150 279.50-140Q273-130 273-114L273-97Q273-78 285-67Q297-56 317-56Q343-56 354.50-67Q366-78 366-97L366-115Q366-128 364-140.50Q362-153 358-165L338-225Q337-229 334.50-230Q332-231 328-231L292-231Z"  horiz-adv-x="653" vert-adv-y="1000"  />

      
      <glyph glyph-name="uni0120" unicode="&#x0120;" d="M306-12Q233-12 181 16Q129 44 101 96.50Q73 149 73 223L73 432Q73 542 140 604.50Q207 667 324 667Q403 667 460.50 640.50Q518 614 546.50 566Q575 518 565 452Q564 442 554 442L489 442Q478 442 480 452Q483 498 466 529Q449 560 414 576Q379 592 326 592Q243 592 200.50 552Q158 512 158 433L158 222Q158 142 198 102.50Q238 63 319 63Q402 63 445.50 104Q489 145 489 222L489 260L333 260Q323 260 323 270L323 324Q323 334 333 334L558 334Q563 334 565.50 331.50Q568 329 568 324L568 127Q568 96 569.50 67.50Q571 39 575 11Q576 6 573.50 3Q571 0 566 0L513 0Q509 0 506 2Q503 4 502 8Q500 21 498 37Q496 53 495 71L494 71Q475 43 446.50 24.50Q418 6 382.50-3Q347-12 306-12M310 725Q281 725 268 740.50Q255 756 255 780L255 790Q255 814 268 829.50Q281 845 310 845Q339 845 352 829.50Q365 814 365 790L365 780Q365 756 352 740.50Q339 725 310 725Z"  horiz-adv-x="653" vert-adv-y="1000"  />

      
      <glyph glyph-name="uni48" unicode="&#x48;" d="M95 0Q85 0 85 10L85 645Q85 655 95 655L160 655Q170 655 170 645L170 375L491 375L491 645Q491 655 501 655L566 655Q576 655 576 645L576 10Q576 0 566 0L501 0Q491 0 491 10L491 301L170 301L170 10Q170 0 160 0L95 0Z"  horiz-adv-x="661" vert-adv-y="1000"  />

      
      <glyph glyph-name="uni0126" unicode="&#x0126;" d="M39 516Q29 516 29 526L29 577Q29 587 39 587L622 587Q632 587 632 577L632 526Q632 516 622 516L576 516L85 516L39 516M95 0Q85 0 85 10L85 645Q85 655 95 655L160 655Q170 655 170 645L170 375L491 375L491 645Q491 655 501 655L566 655Q576 655 576 645L576 10Q576 0 566 0L501 0Q491 0 491 10L491 301L170 301L170 10Q170 0 160 0L95 0Z"  horiz-adv-x="661" vert-adv-y="1000"  />

      
      <glyph glyph-name="uni49" unicode="&#x49;" d="M95 0Q85 0 85 10L85 645Q85 655 95 655L160 655Q170 655 170 645L170 10Q170 0 160 0L95 0Z"  horiz-adv-x="255" vert-adv-y="1000"  />

      
      <glyph glyph-name="uni0132" unicode="&#x0132;" d="M95 0Q85 0 85 10L85 645Q85 655 95 655L160 655Q170 655 170 645L170 10Q170 0 160 0L95 0M292-139Q270-144 267-135L250-76Q249-70 253-66.50Q257-63 268-60Q295-53 313.50-35Q332-17 341 12.50Q350 42 350 82L350 645Q350 655 360 655L425 655Q435 655 435 645L435 86Q435 22 418.50-24.50Q402-71 370.50-99.50Q339-128 292-139Z"  horiz-adv-x="520" vert-adv-y="1000"  />

      
      <glyph glyph-name="unicd" unicode="&#xcd;" d="M95 0Q85 0 85 10L85 645Q85 655 95 655L160 655Q170 655 170 645L170 10Q170 0 160 0L95 0M81 710Q76 710 75 713Q74 716 76 720L132 822Q136 829 142 829L215 829Q220 829 221.50 825.50Q223 822 220 817L148 716Q144 710 137 710L81 710Z"  horiz-adv-x="255" vert-adv-y="1000"  />

      
      <glyph glyph-name="unice" unicode="&#xce;" d="M95 0Q85 0 85 10L85 645Q85 655 95 655L160 655Q170 655 170 645L170 10Q170 0 160 0L95 0M-1 718Q-12 713-12 724L-12 774Q-12 781-5 784L121 840Q128 844 135 840L261 784Q268 781 268 774L268 724Q268 713 257 718L128 764L-1 718Z"  horiz-adv-x="255" vert-adv-y="1000"  />

      
      <glyph glyph-name="unicf" unicode="&#xcf;" d="M95 0Q85 0 85 10L85 645Q85 655 95 655L160 655Q170 655 170 645L170 10Q170 0 160 0L95 0M44 711Q16 711 4 725.50Q-8 740-8 762L-8 772Q-8 795 4 809Q16 823 44 823Q72 823 84 809Q96 795 96 772L96 762Q96 740 84 725.50Q72 711 44 711M212 711Q184 711 172 725.50Q160 740 160 762L160 772Q160 795 172 809Q184 823 212 823Q240 823 252 809Q264 795 264 772L264 762Q264 740 252 725.50Q240 711 212 711Z"  horiz-adv-x="255" vert-adv-y="1000"  />

      
      <glyph glyph-name="uni0130" unicode="&#x0130;" d="M95 0Q85 0 85 10L85 645Q85 655 95 655L160 655Q170 655 170 645L170 10Q170 0 160 0L95 0M128 725Q99 725 86 740.50Q73 756 73 780L73 790Q73 814 86 829.50Q99 845 128 845Q157 845 170 829.50Q183 814 183 790L183 780Q183 756 170 740.50Q157 725 128 725Z"  horiz-adv-x="255" vert-adv-y="1000"  />

      
      <glyph glyph-name="unicc" unicode="&#xcc;" d="M95 0Q85 0 85 10L85 645Q85 655 95 655L160 655Q170 655 170 645L170 10Q170 0 160 0L95 0M119 710Q112 710 108 716L36 817Q33 822 34.50 825.50Q36 829 41 829L114 829Q121 829 124 822L180 720Q182 716 181 713Q180 710 175 710L119 710Z"  horiz-adv-x="255" vert-adv-y="1000"  />

      
      <glyph glyph-name="uni012A" unicode="&#x012A;" d="M95 0Q85 0 85 10L85 645Q85 655 95 655L160 655Q170 655 170 645L170 10Q170 0 160 0L95 0M20 717Q10 717 10 727L10 779Q10 789 20 789L235 789Q245 789 245 779L245 727Q245 717 235 717L20 717Z"  horiz-adv-x="255" vert-adv-y="1000"  />

      
      <glyph glyph-name="uni012E" unicode="&#x012E;" d="M95 0Q85 0 85 10L85 645Q85 655 95 655L160 655Q170 655 170 645L170 10Q170 0 160 0L95 0M133-197Q82-197 58-174.50Q34-152 34-116L34-104Q34-63 64-28.50Q94 6 144 23L164 12L164 1Q136-13 121-37Q106-61 106-87L106-97Q106-116 115.50-125Q125-134 147-134Q155-134 160.50-134Q166-134 172-133Q181-132 181-140L181-184Q181-188 179.50-190.50Q178-193 173-194Q163-195 152.50-196Q142-197 133-197Z"  horiz-adv-x="255" vert-adv-y="1000"  />

      
      <glyph glyph-name="uni4a" unicode="&#x4a;" d="M37-139Q15-144 12-135L-5-76Q-6-70-2-66.50Q2-63 13-60Q40-53 58.50-35Q77-17 86 12.50Q95 42 95 82L95 645Q95 655 105 655L170 655Q180 655 180 645L180 86Q180 22 163.50-24.50Q147-71 115.50-99.50Q84-128 37-139Z"  horiz-adv-x="265" vert-adv-y="1000"  />

      
      <glyph glyph-name="uni4b" unicode="&#x4b;" d="M95 0Q85 0 85 10L85 645Q85 655 95 655L160 655Q170 655 170 645L170 452Q170 432 170 411.50Q170 391 170 371Q170 351 169 331L170 331Q193 357 216 382Q239 407 262 433L457 650Q461 655 469 655L554 655Q560 655 562.50 651.50Q565 648 560 643L325 389L578 12Q581 7 579.50 3.50Q578 0 572 0L489 0Q482 0 477 7L266 324L170 220L170 10Q170 0 160 0L95 0Z"  horiz-adv-x="595" vert-adv-y="1000"  />

      
      <glyph glyph-name="uni0136" unicode="&#x0136;" d="M95 0Q85 0 85 10L85 645Q85 655 95 655L160 655Q170 655 170 645L170 452Q170 432 170 411.50Q170 391 170 371Q170 351 169 331L170 331Q193 357 216 382Q239 407 262 433L457 650Q461 655 469 655L554 655Q560 655 562.50 651.50Q565 648 560 643L325 389L578 12Q581 7 579.50 3.50Q578 0 572 0L489 0Q482 0 477 7L266 324L170 220L170 10Q170 0 160 0L95 0M290-231Q283-231 284-222L300-155Q284-150 277.50-140Q271-130 271-114L271-97Q271-78 283-67Q295-56 315-56Q341-56 352.50-67Q364-78 364-97L364-115Q364-128 362-140.50Q360-153 356-165L336-225Q335-229 332.50-230Q330-231 326-231L290-231Z"  horiz-adv-x="595" vert-adv-y="1000"  />

      
      <glyph glyph-name="uni4c" unicode="&#x4c;" d="M95 0Q85 0 85 10L85 645Q85 655 95 655L160 655Q170 655 170 645L170 77L446 77Q456 77 456 67L456 10Q456 0 446 0L95 0Z"  horiz-adv-x="476" vert-adv-y="1000"  />

      
      <glyph glyph-name="uni0139" unicode="&#x0139;" d="M95 0Q85 0 85 10L85 645Q85 655 95 655L160 655Q170 655 170 645L170 77L446 77Q456 77 456 67L456 10Q456 0 446 0L95 0M80 710Q75 710 74 713Q73 716 75 720L131 822Q135 829 141 829L214 829Q219 829 220.50 825.50Q222 822 219 817L147 716Q143 710 136 710L80 710Z"  horiz-adv-x="476" vert-adv-y="1000"  />

      
      <glyph glyph-name="uni013D" unicode="&#x013D;" d="M95 0Q85 0 85 10L85 645Q85 655 95 655L160 655Q170 655 170 645L170 77L446 77Q456 77 456 67L456 10Q456 0 446 0L95 0M284 500Q273 500 275 511L289 568Q273 573 266.50 581.50Q260 590 260 606L260 631Q260 647 272 657Q284 667 304 667Q330 667 341.50 657Q353 647 353 631L353 605Q353 592 351.50 581Q350 570 345 558L327 508Q324 500 315 500L284 500Z"  horiz-adv-x="476" vert-adv-y="1000"  />

      
      <glyph glyph-name="uni013B" unicode="&#x013B;" d="M95 0Q85 0 85 10L85 645Q85 655 95 655L160 655Q170 655 170 645L170 77L446 77Q456 77 456 67L456 10Q456 0 446 0L95 0M250-231Q243-231 244-222L260-155Q244-150 237.50-140Q231-130 231-114L231-97Q231-78 243-67Q255-56 275-56Q301-56 312.50-67Q324-78 324-97L324-115Q324-128 322-140.50Q320-153 316-165L296-225Q295-229 292.50-230Q290-231 286-231L250-231Z"  horiz-adv-x="476" vert-adv-y="1000"  />

      
      <glyph glyph-name="uni0141" unicode="&#x0141;" d="M-1 264Q-13 259-13 272L-13 328Q-13 336-5 339L296 463Q308 468 308 455L308 400Q308 392 300 389L-1 264M95 0Q85 0 85 10L85 645Q85 655 95 655L160 655Q170 655 170 645L170 77L446 77Q456 77 456 67L456 10Q456 0 446 0L95 0Z"  horiz-adv-x="476" vert-adv-y="1000"  />

      
      <glyph glyph-name="uni4d" unicode="&#x4d;" d="M80 0Q76 0 73 3Q70 6 70 10L84 645Q84 655 94 655L200 655Q207 655 211 647L386 254L558 647Q562 655 569 655L675 655Q685 655 685 645L699 10Q699 6 696.50 3Q694 0 689 0L626 0Q616 0 616 10L606 412Q605 449 606.50 485Q608 521 609 558L607 558Q592 521 576.50 485Q561 449 544 412L396 91Q393 84 385 84L383 84Q375 84 372 91L222 417Q206 452 191.50 487.50Q177 523 163 558L161 558Q163 523 163.50 487Q164 451 163 416L153 10Q153 0 143 0L80 0Z"  horiz-adv-x="769" vert-adv-y="1000"  />

      
      <glyph glyph-name="uni4e" unicode="&#x4e;" d="M95 0Q85 0 85 10L85 645Q85 655 95 655L211 655Q220 655 223 648L411 266Q430 229 444.50 199Q459 169 470.50 143Q482 117 492 92L494 92Q494 113 494 135.50Q494 158 493.50 181Q493 204 493 226.50Q493 249 493 270L493 645Q493 655 503 655L567 655Q577 655 577 645L577 10Q577 0 567 0L454 0Q445 0 442 7L257 379Q241 412 226 442.50Q211 473 197 503Q183 533 170 563L168 563Q168 537 168 513.50Q168 490 168.50 467Q169 444 169 420.50Q169 397 169 371L169 10Q169 0 159 0L95 0Z"  horiz-adv-x="662" vert-adv-y="1000"  />

      
      <glyph glyph-name="uni0143" unicode="&#x0143;" d="M95 0Q85 0 85 10L85 645Q85 655 95 655L211 655Q220 655 223 648L411 266Q430 229 444.50 199Q459 169 470.50 143Q482 117 492 92L494 92Q494 113 494 135.50Q494 158 493.50 181Q493 204 493 226.50Q493 249 493 270L493 645Q493 655 503 655L567 655Q577 655 577 645L577 10Q577 0 567 0L454 0Q445 0 442 7L257 379Q241 412 226 442.50Q211 473 197 503Q183 533 170 563L168 563Q168 537 168 513.50Q168 490 168.50 467Q169 444 169 420.50Q169 397 169 371L169 10Q169 0 159 0L95 0M284 710Q279 710 278 713Q277 716 279 720L335 822Q339 829 345 829L418 829Q423 829 424.50 825.50Q426 822 423 817L351 716Q347 710 340 710L284 710Z"  horiz-adv-x="662" vert-adv-y="1000"  />

      
      <glyph glyph-name="uni0147" unicode="&#x0147;" d="M95 0Q85 0 85 10L85 645Q85 655 95 655L211 655Q220 655 223 648L411 266Q430 229 444.50 199Q459 169 470.50 143Q482 117 492 92L494 92Q494 113 494 135.50Q494 158 493.50 181Q493 204 493 226.50Q493 249 493 270L493 645Q493 655 503 655L567 655Q577 655 577 645L577 10Q577 0 567 0L454 0Q445 0 442 7L257 379Q241 412 226 442.50Q211 473 197 503Q183 533 170 563L168 563Q168 537 168 513.50Q168 490 168.50 467Q169 444 169 420.50Q169 397 169 371L169 10Q169 0 159 0L95 0M324 718L198 774Q194 776 192.50 778Q191 780 191 784L191 834Q191 845 202 840L331 794L460 840Q471 845 471 834L471 784Q471 780 469.50 778Q468 776 464 774L338 718Q331 715 324 718Z"  horiz-adv-x="662" vert-adv-y="1000"  />

      
      <glyph glyph-name="uni0145" unicode="&#x0145;" d="M95 0Q85 0 85 10L85 645Q85 655 95 655L211 655Q220 655 223 648L411 266Q430 229 444.50 199Q459 169 470.50 143Q482 117 492 92L494 92Q494 113 494 135.50Q494 158 493.50 181Q493 204 493 226.50Q493 249 493 270L493 645Q493 655 503 655L567 655Q577 655 577 645L577 10Q577 0 567 0L454 0Q445 0 442 7L257 379Q241 412 226 442.50Q211 473 197 503Q183 533 170 563L168 563Q168 537 168 513.50Q168 490 168.50 467Q169 444 169 420.50Q169 397 169 371L169 10Q169 0 159 0L95 0M303-231Q296-231 297-222L313-155Q297-150 290.50-140Q284-130 284-114L284-97Q284-78 296-67Q308-56 328-56Q354-56 365.50-67Q377-78 377-97L377-115Q377-128 375-140.50Q373-153 369-165L349-225Q348-229 345.50-230Q343-231 339-231L303-231Z"  horiz-adv-x="662" vert-adv-y="1000"  />

      
      <glyph glyph-name="uni014A" unicode="&#x014A;" d="M444-187L405-138Q401-133 403.50-129Q406-125 415-120Q443-101 462-69.50Q481-38 488 0L454 0Q445 0 442 7L257 379Q241 412 226 442.50Q211 473 197 503Q183 533 170 563L168 563Q168 537 168 513.50Q168 490 168.50 467Q169 444 169 420.50Q169 397 169 371L169 10Q169 0 159 0L95 0Q85 0 85 10L85 645Q85 655 95 655L211 655Q220 655 223 648L411 266Q430 229 444.50 199Q459 169 470.50 143Q482 117 492 92L494 92Q494 113 494 135.50Q494 158 493.50 181Q493 204 493 226.50Q493 249 493 270L493 645Q493 655 503 655L567 655Q577 655 577 645L577 60Q577 2 565-45Q553-92 529.50-126Q506-160 471-182Q459-189 453.50-190Q448-191 444-187Z"  horiz-adv-x="662" vert-adv-y="1000"  />

      
      <glyph glyph-name="unid1" unicode="&#xd1;" d="M95 0Q85 0 85 10L85 645Q85 655 95 655L211 655Q220 655 223 648L411 266Q430 229 444.50 199Q459 169 470.50 143Q482 117 492 92L494 92Q494 113 494 135.50Q494 158 493.50 181Q493 204 493 226.50Q493 249 493 270L493 645Q493 655 503 655L567 655Q577 655 577 645L577 10Q577 0 567 0L454 0Q445 0 442 7L257 379Q241 412 226 442.50Q211 473 197 503Q183 533 170 563L168 563Q168 537 168 513.50Q168 490 168.50 467Q169 444 169 420.50Q169 397 169 371L169 10Q169 0 159 0L95 0M387 719Q365 719 347.50 725.50Q330 732 313 738Q296 744 275 744Q254 744 234.50 737.50Q215 731 204 725Q192 718 192 731L192 778Q192 788 198 791Q209 796 228 806Q247 816 278 816Q305 816 322.50 810Q340 804 355 797.50Q370 791 389 791Q410 791 429.50 797.50Q449 804 460 810Q472 817 472 804L472 757Q472 753 470.50 749.50Q469 746 466 744Q456 737 436.50 728Q417 719 387 719Z"  horiz-adv-x="662" vert-adv-y="1000"  />

      
      <glyph glyph-name="uni4f" unicode="&#x4f;" d="M321-12Q196-12 134.50 49.50Q73 111 73 223L73 432Q73 545 134.50 606Q196 667 321 667Q446 667 507.50 606Q569 545 569 432L569 223Q569 111 507.50 49.50Q446-12 321-12M321 63Q401 63 442.50 104Q484 145 484 224L484 431Q484 511 442.50 551.50Q401 592 321 592Q242 592 200 551.50Q158 511 158 431L158 224Q158 145 200 104Q242 63 321 63Z"  horiz-adv-x="642" vert-adv-y="1000"  />

      
      <glyph glyph-name="unid3" unicode="&#xd3;" d="M321-12Q196-12 134.50 49.50Q73 111 73 223L73 432Q73 545 134.50 606Q196 667 321 667Q446 667 507.50 606Q569 545 569 432L569 223Q569 111 507.50 49.50Q446-12 321-12M321 63Q401 63 442.50 104Q484 145 484 224L484 431Q484 511 442.50 551.50Q401 592 321 592Q242 592 200 551.50Q158 511 158 431L158 224Q158 145 200 104Q242 63 321 63M274 710Q269 710 268 713Q267 716 269 720L325 822Q329 829 335 829L408 829Q413 829 414.50 825.50Q416 822 413 817L341 716Q337 710 330 710L274 710Z"  horiz-adv-x="642" vert-adv-y="1000"  />

      
      <glyph glyph-name="unid4" unicode="&#xd4;" d="M321-12Q196-12 134.50 49.50Q73 111 73 223L73 432Q73 545 134.50 606Q196 667 321 667Q446 667 507.50 606Q569 545 569 432L569 223Q569 111 507.50 49.50Q446-12 321-12M321 63Q401 63 442.50 104Q484 145 484 224L484 431Q484 511 442.50 551.50Q401 592 321 592Q242 592 200 551.50Q158 511 158 431L158 224Q158 145 200 104Q242 63 321 63M192 718Q181 713 181 724L181 774Q181 781 188 784L314 840Q321 844 328 840L454 784Q461 781 461 774L461 724Q461 713 450 718L321 764L192 718Z"  horiz-adv-x="642" vert-adv-y="1000"  />

      
      <glyph glyph-name="unid6" unicode="&#xd6;" d="M321-12Q196-12 134.50 49.50Q73 111 73 223L73 432Q73 545 134.50 606Q196 667 321 667Q446 667 507.50 606Q569 545 569 432L569 223Q569 111 507.50 49.50Q446-12 321-12M321 63Q401 63 442.50 104Q484 145 484 224L484 431Q484 511 442.50 551.50Q401 592 321 592Q242 592 200 551.50Q158 511 158 431L158 224Q158 145 200 104Q242 63 321 63M237 711Q209 711 197 725.50Q185 740 185 762L185 772Q185 795 197 809Q209 823 237 823Q265 823 277 809Q289 795 289 772L289 762Q289 740 277 725.50Q265 711 237 711M405 711Q377 711 365 725.50Q353 740 353 762L353 772Q353 795 365 809Q377 823 405 823Q433 823 445 809Q457 795 457 772L457 762Q457 740 445 725.50Q433 711 405 711Z"  horiz-adv-x="642" vert-adv-y="1000"  />

      
      <glyph glyph-name="unid2" unicode="&#xd2;" d="M321-12Q196-12 134.50 49.50Q73 111 73 223L73 432Q73 545 134.50 606Q196 667 321 667Q446 667 507.50 606Q569 545 569 432L569 223Q569 111 507.50 49.50Q446-12 321-12M321 63Q401 63 442.50 104Q484 145 484 224L484 431Q484 511 442.50 551.50Q401 592 321 592Q242 592 200 551.50Q158 511 158 431L158 224Q158 145 200 104Q242 63 321 63M312 710Q305 710 301 716L229 817Q226 822 227.50 825.50Q229 829 234 829L307 829Q314 829 317 822L373 720Q375 716 374 713Q373 710 368 710L312 710Z"  horiz-adv-x="642" vert-adv-y="1000"  />

      
      <glyph glyph-name="uni0150" unicode="&#x0150;" d="M321-12Q196-12 134.50 49.50Q73 111 73 223L73 432Q73 545 134.50 606Q196 667 321 667Q446 667 507.50 606Q569 545 569 432L569 223Q569 111 507.50 49.50Q446-12 321-12M321 63Q401 63 442.50 104Q484 145 484 224L484 431Q484 511 442.50 551.50Q401 592 321 592Q242 592 200 551.50Q158 511 158 431L158 224Q158 145 200 104Q242 63 321 63M357 710Q352 710 350.50 713Q349 716 351 721L394 821Q397 829 405 829L470 829Q475 829 477 825.50Q479 822 476 817L422 717Q418 710 410 710L357 710M215 710Q210 710 208.50 713Q207 716 209 721L252 821Q255 829 263 829L328 829Q333 829 335 825.50Q337 822 334 817L280 717Q276 710 268 710L215 710Z"  horiz-adv-x="642" vert-adv-y="1000"  />

      
      <glyph glyph-name="uni014C" unicode="&#x014C;" d="M321-12Q196-12 134.50 49.50Q73 111 73 223L73 432Q73 545 134.50 606Q196 667 321 667Q446 667 507.50 606Q569 545 569 432L569 223Q569 111 507.50 49.50Q446-12 321-12M321 63Q401 63 442.50 104Q484 145 484 224L484 431Q484 511 442.50 551.50Q401 592 321 592Q242 592 200 551.50Q158 511 158 431L158 224Q158 145 200 104Q242 63 321 63M213 717Q203 717 203 727L203 779Q203 789 213 789L428 789Q438 789 438 779L438 727Q438 717 428 717L213 717Z"  horiz-adv-x="642" vert-adv-y="1000"  />

      
      <glyph glyph-name="unid8" unicode="&#xd8;" d="M52-50Q46-50 44.50-46.50Q43-43 46-38L128 90L158 137L446 590L461 614L515 699Q519 705 527 705L590 705Q596 705 597.50 701.50Q599 698 596 693L512 561L489 524L202 75L182 43L127-44Q125-48 122-49Q119-50 115-50L52-50M321-12Q196-12 134.50 49.50Q73 111 73 223L73 432Q73 545 134.50 606Q196 667 321 667Q446 667 507.50 606Q569 545 569 432L569 223Q569 111 507.50 49.50Q446-12 321-12M321 63Q401 63 442.50 104Q484 145 484 224L484 431Q484 511 442.50 551.50Q401 592 321 592Q242 592 200 551.50Q158 511 158 431L158 224Q158 145 200 104Q242 63 321 63Z"  horiz-adv-x="642" vert-adv-y="1000"  />

      
      <glyph glyph-name="unid5" unicode="&#xd5;" d="M321-12Q196-12 134.50 49.50Q73 111 73 223L73 432Q73 545 134.50 606Q196 667 321 667Q446 667 507.50 606Q569 545 569 432L569 223Q569 111 507.50 49.50Q446-12 321-12M321 63Q401 63 442.50 104Q484 145 484 224L484 431Q484 511 442.50 551.50Q401 592 321 592Q242 592 200 551.50Q158 511 158 431L158 224Q158 145 200 104Q242 63 321 63M377 719Q355 719 337.50 725.50Q320 732 303 738Q286 744 265 744Q244 744 224.50 737.50Q205 731 194 725Q182 718 182 731L182 778Q182 788 188 791Q199 796 218 806Q237 816 268 816Q295 816 312.50 810Q330 804 345 797.50Q360 791 379 791Q400 791 419.50 797.50Q439 804 450 810Q462 817 462 804L462 757Q462 753 460.50 749.50Q459 746 456 744Q446 737 426.50 728Q407 719 377 719Z"  horiz-adv-x="642" vert-adv-y="1000"  />

      
      <glyph glyph-name="uni0152" unicode="&#x0152;" d="M321-12Q197-12 135 50Q73 112 73 223L73 432Q73 543 135 605Q197 667 321 667Q347 667 376 664Q405 661 426 655L792 655Q802 655 802 645L802 588Q802 578 792 578L511 578L511 370L768 370Q778 370 778 360L778 306Q778 296 768 296L511 296L511 77L792 77Q802 77 802 67L802 10Q802 0 792 0L426 0Q405-6 376-9Q347-12 321-12M321 63Q350 63 378.50 65.50Q407 68 426 72L426 583Q407 588 378.50 590Q350 592 321 592Q242 592 200 551Q158 510 158 433L158 222Q158 145 200 104Q242 63 321 63Z"  horiz-adv-x="874" vert-adv-y="1000"  />

      
      <glyph glyph-name="uni50" unicode="&#x50;" d="M95 0Q85 0 85 10L85 645Q85 655 95 655L262 655Q383 655 444 603.50Q505 552 505 451Q505 351 443.50 299Q382 247 262 247L170 247L170 10Q170 0 160 0L95 0M170 319L260 319Q344 319 382 350.50Q420 382 420 448Q420 519 380.50 551Q341 583 258 583L170 583L170 319Z"  horiz-adv-x="545" vert-adv-y="1000"  />

      
      <glyph glyph-name="unide" unicode="&#xde;" d="M95 0Q85 0 85 10L85 645Q85 655 95 655L160 655Q170 655 170 645L170 544L262 544Q383 544 444 492.50Q505 441 505 340Q505 240 443.50 188Q382 136 262 136L170 136L170 10Q170 0 160 0L95 0M170 208L260 208Q344 208 382 239.50Q420 271 420 337Q420 408 380.50 440Q341 472 258 472L170 472L170 208Z"  horiz-adv-x="545" vert-adv-y="1000"  />

      
      <glyph glyph-name="uni51" unicode="&#x51;" d="M441-182Q398-182 368.50-159Q339-136 325-88Q311-40 314 34Q314 39 317 41.50Q320 44 324 44L385 40Q390 40 392.50 37Q395 34 395 29Q394-20 400-49.50Q406-79 420.50-91.50Q435-104 457-104Q464-104 472-102Q480-100 488-99Q493-98 496-100.50Q499-103 499-108L499-163Q499-172 487-176Q479-178 466-180Q453-182 441-182M321-12Q196-12 134.50 49.50Q73 111 73 223L73 432Q73 545 134.50 606Q196 667 321 667Q446 667 507.50 606Q569 545 569 432L569 223Q569 111 507.50 49.50Q446-12 321-12M321 63Q401 63 442.50 104Q484 145 484 224L484 431Q484 511 442.50 551.50Q401 592 321 592Q242 592 200 551.50Q158 511 158 431L158 224Q158 145 200 104Q242 63 321 63Z"  horiz-adv-x="642" vert-adv-y="1000"  />

      
      <glyph glyph-name="uni52" unicode="&#x52;" d="M95 0Q85 0 85 10L85 645Q85 655 95 655L288 655Q407 655 464.50 610Q522 565 522 475Q522 403 487.50 355.50Q453 308 390 290L390 289L557 12Q560 7 558 3.50Q556 0 550 0L473 0Q465 0 461 7L298 279L170 279L170 10Q170 0 160 0L95 0M170 347L279 347Q363 347 400 376Q437 405 437 469Q437 531 402.50 557Q368 583 285 583L170 583L170 347Z"  horiz-adv-x="604" vert-adv-y="1000"  />

      
      <glyph glyph-name="uni0154" unicode="&#x0154;" d="M95 0Q85 0 85 10L85 645Q85 655 95 655L288 655Q407 655 464.50 610Q522 565 522 475Q522 403 487.50 355.50Q453 308 390 290L390 289L557 12Q560 7 558 3.50Q556 0 550 0L473 0Q465 0 461 7L298 279L170 279L170 10Q170 0 160 0L95 0M170 347L279 347Q363 347 400 376Q437 405 437 469Q437 531 402.50 557Q368 583 285 583L170 583L170 347M230 710Q225 710 224 713Q223 716 225 720L281 822Q285 829 291 829L364 829Q369 829 370.50 825.50Q372 822 369 817L297 716Q293 710 286 710L230 710Z"  horiz-adv-x="604" vert-adv-y="1000"  />

      
      <glyph glyph-name="uni0158" unicode="&#x0158;" d="M95 0Q85 0 85 10L85 645Q85 655 95 655L288 655Q407 655 464.50 610Q522 565 522 475Q522 403 487.50 355.50Q453 308 390 290L390 289L557 12Q560 7 558 3.50Q556 0 550 0L473 0Q465 0 461 7L298 279L170 279L170 10Q170 0 160 0L95 0M170 347L279 347Q363 347 400 376Q437 405 437 469Q437 531 402.50 557Q368 583 285 583L170 583L170 347M270 718L144 774Q140 776 138.50 778Q137 780 137 784L137 834Q137 845 148 840L277 794L406 840Q417 845 417 834L417 784Q417 780 415.50 778Q414 776 410 774L284 718Q277 715 270 718Z"  horiz-adv-x="604" vert-adv-y="1000"  />

      
      <glyph glyph-name="uni0156" unicode="&#x0156;" d="M95 0Q85 0 85 10L85 645Q85 655 95 655L288 655Q407 655 464.50 610Q522 565 522 475Q522 403 487.50 355.50Q453 308 390 290L390 289L557 12Q560 7 558 3.50Q556 0 550 0L473 0Q465 0 461 7L298 279L170 279L170 10Q170 0 160 0L95 0M170 347L279 347Q363 347 400 376Q437 405 437 469Q437 531 402.50 557Q368 583 285 583L170 583L170 347M274-231Q267-231 268-222L284-155Q268-150 261.50-140Q255-130 255-114L255-97Q255-78 267-67Q279-56 299-56Q325-56 336.50-67Q348-78 348-97L348-115Q348-128 346-140.50Q344-153 340-165L320-225Q319-229 316.50-230Q314-231 310-231L274-231Z"  horiz-adv-x="604" vert-adv-y="1000"  />

      
      <glyph glyph-name="uni53" unicode="&#x53;" d="M278-12Q198-12 146.50 11.50Q95 35 71.50 77Q48 119 52 174Q53 192 64 192L127 192Q139 192 139 176Q139 115 175 88.50Q211 62 285 62Q356 62 392.50 87.50Q429 113 429 165Q429 191 420.50 209.50Q412 228 392 242Q372 256 338 270L191 331Q145 350 116.50 373.50Q88 397 75.50 427.50Q63 458 63 497Q64 580 118.50 623Q173 666 277 666Q348 666 400 645Q452 624 479 584Q506 544 501 486Q499 467 490 467L426 467Q421 467 418.50 471Q416 475 417 486Q421 537 382.50 564.50Q344 592 274 592Q212 592 180.50 570Q149 548 148 502Q148 478 156.50 460Q165 442 185.50 427Q206 412 242 397L387 336Q433 317 461 294Q489 271 501.50 240.50Q514 210 514 167Q514 83 457 35.50Q400-12 278-12Z"  horiz-adv-x="568" vert-adv-y="1000"  />

      
      <glyph glyph-name="uni015A" unicode="&#x015A;" d="M278-12Q198-12 146.50 11.50Q95 35 71.50 77Q48 119 52 174Q53 192 64 192L127 192Q139 192 139 176Q139 115 175 88.50Q211 62 285 62Q356 62 392.50 87.50Q429 113 429 165Q429 191 420.50 209.50Q412 228 392 242Q372 256 338 270L191 331Q145 350 116.50 373.50Q88 397 75.50 427.50Q63 458 63 497Q64 580 118.50 623Q173 666 277 666Q348 666 400 645Q452 624 479 584Q506 544 501 486Q499 467 490 467L426 467Q421 467 418.50 471Q416 475 417 486Q421 537 382.50 564.50Q344 592 274 592Q212 592 180.50 570Q149 548 148 502Q148 478 156.50 460Q165 442 185.50 427Q206 412 242 397L387 336Q433 317 461 294Q489 271 501.50 240.50Q514 210 514 167Q514 83 457 35.50Q400-12 278-12M234 710Q229 710 228 713Q227 716 229 720L285 822Q289 829 295 829L368 829Q373 829 374.50 825.50Q376 822 373 817L301 716Q297 710 290 710L234 710Z"  horiz-adv-x="568" vert-adv-y="1000"  />

      
      <glyph glyph-name="uni0160" unicode="&#x0160;" d="M278-12Q198-12 146.50 11.50Q95 35 71.50 77Q48 119 52 174Q53 192 64 192L127 192Q139 192 139 176Q139 115 175 88.50Q211 62 285 62Q356 62 392.50 87.50Q429 113 429 165Q429 191 420.50 209.50Q412 228 392 242Q372 256 338 270L191 331Q145 350 116.50 373.50Q88 397 75.50 427.50Q63 458 63 497Q64 580 118.50 623Q173 666 277 666Q348 666 400 645Q452 624 479 584Q506 544 501 486Q499 467 490 467L426 467Q421 467 418.50 471Q416 475 417 486Q421 537 382.50 564.50Q344 592 274 592Q212 592 180.50 570Q149 548 148 502Q148 478 156.50 460Q165 442 185.50 427Q206 412 242 397L387 336Q433 317 461 294Q489 271 501.50 240.50Q514 210 514 167Q514 83 457 35.50Q400-12 278-12M274 718L148 774Q144 776 142.50 778Q141 780 141 784L141 834Q141 845 152 840L281 794L410 840Q421 845 421 834L421 784Q421 780 419.50 778Q418 776 414 774L288 718Q281 715 274 718Z"  horiz-adv-x="568" vert-adv-y="1000"  />

      
      <glyph glyph-name="uni015E" unicode="&#x015E;" d="M278-12Q198-12 146.50 11.50Q95 35 71.50 77Q48 119 52 174Q53 192 64 192L127 192Q139 192 139 176Q139 115 175 88.50Q211 62 285 62Q356 62 392.50 87.50Q429 113 429 165Q429 191 420.50 209.50Q412 228 392 242Q372 256 338 270L191 331Q145 350 116.50 373.50Q88 397 75.50 427.50Q63 458 63 497Q64 580 118.50 623Q173 666 277 666Q348 666 400 645Q452 624 479 584Q506 544 501 486Q499 467 490 467L426 467Q421 467 418.50 471Q416 475 417 486Q421 537 382.50 564.50Q344 592 274 592Q212 592 180.50 570Q149 548 148 502Q148 478 156.50 460Q165 442 185.50 427Q206 412 242 397L387 336Q433 317 461 294Q489 271 501.50 240.50Q514 210 514 167Q514 83 457 35.50Q400-12 278-12M269-197Q259-197 249-196Q239-195 228-193Q220-192 220-185L220-148Q220-140 228-141Q235-142 243-142.50Q251-143 256-143Q278-143 287.50-136Q297-129 297-119L297-106Q297-91 288.50-85.50Q280-80 263-80L240-80Q233-80 233-73Q233-68 233.50-62.50Q234-57 235-53L258 22Q260 28 267 28L315 28Q323 28 320 17L302-41L311-41Q337-41 350.50-58.50Q364-76 364-105L364-120Q364-160 340.50-178.50Q317-197 269-197Z"  horiz-adv-x="568" vert-adv-y="1000"  />

      
      <glyph glyph-name="uni0218" unicode="&#x0218;" d="M278-12Q198-12 146.50 11.50Q95 35 71.50 77Q48 119 52 174Q53 192 64 192L127 192Q139 192 139 176Q139 115 175 88.50Q211 62 285 62Q356 62 392.50 87.50Q429 113 429 165Q429 191 420.50 209.50Q412 228 392 242Q372 256 338 270L191 331Q145 350 116.50 373.50Q88 397 75.50 427.50Q63 458 63 497Q64 580 118.50 623Q173 666 277 666Q348 666 400 645Q452 624 479 584Q506 544 501 486Q499 467 490 467L426 467Q421 467 418.50 471Q416 475 417 486Q421 537 382.50 564.50Q344 592 274 592Q212 592 180.50 570Q149 548 148 502Q148 478 156.50 460Q165 442 185.50 427Q206 412 242 397L387 336Q433 317 461 294Q489 271 501.50 240.50Q514 210 514 167Q514 83 457 35.50Q400-12 278-12M264-231Q257-231 258-222L274-155Q258-150 251.50-140Q245-130 245-114L245-97Q245-78 257-67Q269-56 289-56Q315-56 326.50-67Q338-78 338-97L338-115Q338-128 336-140.50Q334-153 330-165L310-225Q309-229 306.50-230Q304-231 300-231L264-231Z"  horiz-adv-x="568" vert-adv-y="1000"  />

      
      <glyph glyph-name="uni1E9E" unicode="&#x1E9E;" d="M395-12Q339-12 300 5.50Q261 23 241.50 54Q222 85 225 126Q226 137 229.50 139.50Q233 142 238 142L297 142Q307 142 307 126Q307 95 329.50 78.50Q352 62 396 62Q459 62 490 95Q521 128 521 195Q521 266 484.50 296.50Q448 327 363 327L316 327Q306 327 306 337L306 374Q306 380 310 387L430 578L170 578L170 10Q170 0 160 0L95 0Q85 0 85 10L85 645Q85 655 95 655L553 655Q561 655 562.50 647.50Q564 640 559 631L407 395Q507 389 556.50 340Q606 291 606 197Q606 96 551.50 42Q497-12 395-12Z"  horiz-adv-x="651" vert-adv-y="1000"  />

      
      <glyph glyph-name="uni54" unicode="&#x54;" d="M235 0Q225 0 225 10L225 578L45 578Q35 578 35 588L35 645Q35 655 45 655L490 655Q500 655 500 645L500 588Q500 578 490 578L310 578L310 10Q310 0 300 0L235 0Z"  horiz-adv-x="535" vert-adv-y="1000"  />

      
      <glyph glyph-name="uni0166" unicode="&#x0166;" d="M123 303Q113 303 113 313L113 358Q113 368 123 368L412 368Q422 368 422 358L422 313Q422 303 412 303L310 303L225 303L123 303M235 0Q225 0 225 10L225 578L45 578Q35 578 35 588L35 645Q35 655 45 655L490 655Q500 655 500 645L500 588Q500 578 490 578L310 578L310 10Q310 0 300 0L235 0Z"  horiz-adv-x="535" vert-adv-y="1000"  />

      
      <glyph glyph-name="uni0164" unicode="&#x0164;" d="M235 0Q225 0 225 10L225 578L45 578Q35 578 35 588L35 645Q35 655 45 655L490 655Q500 655 500 645L500 588Q500 578 490 578L310 578L310 10Q310 0 300 0L235 0M261 718L135 774Q131 776 129.50 778Q128 780 128 784L128 834Q128 845 139 840L268 794L397 840Q408 845 408 834L408 784Q408 780 406.50 778Q405 776 401 774L275 718Q268 715 261 718Z"  horiz-adv-x="535" vert-adv-y="1000"  />

      
      <glyph glyph-name="uni0162" unicode="&#x0162;" d="M235 0Q225 0 225 10L225 578L45 578Q35 578 35 588L35 645Q35 655 45 655L490 655Q500 655 500 645L500 588Q500 578 490 578L310 578L310 10Q310 0 300 0L235 0M245-197Q235-197 225-196Q215-195 204-193Q196-192 196-185L196-148Q196-140 204-141Q211-142 219-142.50Q227-143 232-143Q254-143 263.50-136Q273-129 273-119L273-106Q273-91 264.50-85.50Q256-80 239-80L216-80Q209-80 209-73Q209-68 209.50-62.50Q210-57 211-53L234 22Q236 28 243 28L291 28Q299 28 296 17L278-41L287-41Q313-41 326.50-58.50Q340-76 340-105L340-120Q340-160 316.50-178.50Q293-197 245-197Z"  horiz-adv-x="535" vert-adv-y="1000"  />

      
      <glyph glyph-name="uni021A" unicode="&#x021A;" d="M235 0Q225 0 225 10L225 578L45 578Q35 578 35 588L35 645Q35 655 45 655L490 655Q500 655 500 645L500 588Q500 578 490 578L310 578L310 10Q310 0 300 0L235 0M240-231Q233-231 234-222L250-155Q234-150 227.50-140Q221-130 221-114L221-97Q221-78 233-67Q245-56 265-56Q291-56 302.50-67Q314-78 314-97L314-115Q314-128 312-140.50Q310-153 306-165L286-225Q285-229 282.50-230Q280-231 276-231L240-231Z"  horiz-adv-x="535" vert-adv-y="1000"  />

      
      <glyph glyph-name="uni55" unicode="&#x55;" d="M322-12Q207-12 143.50 49Q80 110 80 225L80 645Q80 655 90 655L155 655Q160 655 162.50 652.50Q165 650 165 645L165 222Q165 146 205.50 104.50Q246 63 322 63Q398 63 438.50 104.50Q479 146 479 222L479 645Q479 655 489 655L554 655Q564 655 564 645L564 223Q564 114 499.50 51Q435-12 322-12Z"  horiz-adv-x="644" vert-adv-y="1000"  />

      
      <glyph glyph-name="unida" unicode="&#xda;" d="M322-12Q207-12 143.50 49Q80 110 80 225L80 645Q80 655 90 655L155 655Q160 655 162.50 652.50Q165 650 165 645L165 222Q165 146 205.50 104.50Q246 63 322 63Q398 63 438.50 104.50Q479 146 479 222L479 645Q479 655 489 655L554 655Q564 655 564 645L564 223Q564 114 499.50 51Q435-12 322-12M275 710Q270 710 269 713Q268 716 270 720L326 822Q330 829 336 829L409 829Q414 829 415.50 825.50Q417 822 414 817L342 716Q338 710 331 710L275 710Z"  horiz-adv-x="644" vert-adv-y="1000"  />

      
      <glyph glyph-name="unidb" unicode="&#xdb;" d="M322-12Q207-12 143.50 49Q80 110 80 225L80 645Q80 655 90 655L155 655Q160 655 162.50 652.50Q165 650 165 645L165 222Q165 146 205.50 104.50Q246 63 322 63Q398 63 438.50 104.50Q479 146 479 222L479 645Q479 655 489 655L554 655Q564 655 564 645L564 223Q564 114 499.50 51Q435-12 322-12M193 718Q182 713 182 724L182 774Q182 781 189 784L315 840Q322 844 329 840L455 784Q462 781 462 774L462 724Q462 713 451 718L322 764L193 718Z"  horiz-adv-x="644" vert-adv-y="1000"  />

      
      <glyph glyph-name="unidc" unicode="&#xdc;" d="M322-12Q207-12 143.50 49Q80 110 80 225L80 645Q80 655 90 655L155 655Q160 655 162.50 652.50Q165 650 165 645L165 222Q165 146 205.50 104.50Q246 63 322 63Q398 63 438.50 104.50Q479 146 479 222L479 645Q479 655 489 655L554 655Q564 655 564 645L564 223Q564 114 499.50 51Q435-12 322-12M238 711Q210 711 198 725.50Q186 740 186 762L186 772Q186 795 198 809Q210 823 238 823Q266 823 278 809Q290 795 290 772L290 762Q290 740 278 725.50Q266 711 238 711M406 711Q378 711 366 725.50Q354 740 354 762L354 772Q354 795 366 809Q378 823 406 823Q434 823 446 809Q458 795 458 772L458 762Q458 740 446 725.50Q434 711 406 711Z"  horiz-adv-x="644" vert-adv-y="1000"  />

      
      <glyph glyph-name="unid9" unicode="&#xd9;" d="M322-12Q207-12 143.50 49Q80 110 80 225L80 645Q80 655 90 655L155 655Q160 655 162.50 652.50Q165 650 165 645L165 222Q165 146 205.50 104.50Q246 63 322 63Q398 63 438.50 104.50Q479 146 479 222L479 645Q479 655 489 655L554 655Q564 655 564 645L564 223Q564 114 499.50 51Q435-12 322-12M313 710Q306 710 302 716L230 817Q227 822 228.50 825.50Q230 829 235 829L308 829Q315 829 318 822L374 720Q376 716 375 713Q374 710 369 710L313 710Z"  horiz-adv-x="644" vert-adv-y="1000"  />

      
      <glyph glyph-name="uni0170" unicode="&#x0170;" d="M322-12Q207-12 143.50 49Q80 110 80 225L80 645Q80 655 90 655L155 655Q160 655 162.50 652.50Q165 650 165 645L165 222Q165 146 205.50 104.50Q246 63 322 63Q398 63 438.50 104.50Q479 146 479 222L479 645Q479 655 489 655L554 655Q564 655 564 645L564 223Q564 114 499.50 51Q435-12 322-12M358 710Q353 710 351.50 713Q350 716 352 721L395 821Q398 829 406 829L471 829Q476 829 478 825.50Q480 822 477 817L423 717Q419 710 411 710L358 710M216 710Q211 710 209.50 713Q208 716 210 721L253 821Q256 829 264 829L329 829Q334 829 336 825.50Q338 822 335 817L281 717Q277 710 269 710L216 710Z"  horiz-adv-x="644" vert-adv-y="1000"  />

      
      <glyph glyph-name="uni016A" unicode="&#x016A;" d="M322-12Q207-12 143.50 49Q80 110 80 225L80 645Q80 655 90 655L155 655Q160 655 162.50 652.50Q165 650 165 645L165 222Q165 146 205.50 104.50Q246 63 322 63Q398 63 438.50 104.50Q479 146 479 222L479 645Q479 655 489 655L554 655Q564 655 564 645L564 223Q564 114 499.50 51Q435-12 322-12M214 717Q204 717 204 727L204 779Q204 789 214 789L429 789Q439 789 439 779L439 727Q439 717 429 717L214 717Z"  horiz-adv-x="644" vert-adv-y="1000"  />

      
      <glyph glyph-name="uni0172" unicode="&#x0172;" d="M322-12Q207-12 143.50 49Q80 110 80 225L80 645Q80 655 90 655L155 655Q160 655 162.50 652.50Q165 650 165 645L165 222Q165 146 205.50 104.50Q246 63 322 63Q398 63 438.50 104.50Q479 146 479 222L479 645Q479 655 489 655L554 655Q564 655 564 645L564 223Q564 114 499.50 51Q435-12 322-12M382-197Q331-197 307-174.50Q283-152 283-116L283-104Q283-63 313-28.50Q343 6 393 23L413 12L413 1Q385-13 370-37Q355-61 355-87L355-97Q355-116 364.50-125Q374-134 396-134Q404-134 409.50-134Q415-134 421-133Q430-132 430-140L430-184Q430-188 428.50-190.50Q427-193 422-194Q412-195 401.50-196Q391-197 382-197Z"  horiz-adv-x="644" vert-adv-y="1000"  />

      
      <glyph glyph-name="uni016E" unicode="&#x016E;" d="M322-12Q207-12 143.50 49Q80 110 80 225L80 645Q80 655 90 655L155 655Q160 655 162.50 652.50Q165 650 165 645L165 222Q165 146 205.50 104.50Q246 63 322 63Q398 63 438.50 104.50Q479 146 479 222L479 645Q479 655 489 655L554 655Q564 655 564 645L564 223Q564 114 499.50 51Q435-12 322-12M322 669Q272 669 241.50 694Q211 719 211 765Q211 812 241 836.50Q271 861 322 861Q372 861 402.50 836.50Q433 812 433 765Q433 719 403 694Q373 669 322 669M322 719Q350 719 361.50 732Q373 745 373 765Q373 785 361.50 798Q350 811 322 811Q294 811 282.50 798Q271 785 271 765Q271 745 282.50 732Q294 719 322 719Z"  horiz-adv-x="644" vert-adv-y="1000"  />

      
      <glyph glyph-name="uni56" unicode="&#x56;" d="M242 0Q233 0 230 8L16 644Q13 655 24 655L94 655Q103 655 106 647L244 221Q255 187 266.50 152Q278 117 288 82L290 82Q301 116 312.50 150Q324 184 335 218L479 647Q482 655 491 655L560 655Q571 655 568 644L349 8Q346 0 337 0L242 0Z"  horiz-adv-x="584" vert-adv-y="1000"  />

      
      <glyph glyph-name="uni57" unicode="&#x57;" d="M215 0Q206 0 204 8L21 644Q18 655 30 655L96 655Q105 655 107 647L223 234Q230 211 236 187.50Q242 164 248.50 140.50Q255 117 261 93L262 93Q273 128 283.50 162Q294 196 304 230L388 509L352 634Q351 639 353.50 642Q356 645 361 645L429 645Q438 645 440 636L553 221Q562 189 570.50 157Q579 125 588 93L589 93Q595 116 601 139Q607 162 613 185Q619 208 625 231L737 647Q739 655 748 655L817 655Q829 655 826 644L650 8Q648 0 639 0L544 0Q535 0 533 8L465 243Q455 276 446 309Q437 342 428 375L427 375Q417 343 407.50 310.50Q398 278 388 246L317 8Q316 4 313.50 2Q311 0 306 0L215 0Z"  horiz-adv-x="847" vert-adv-y="1000"  />

      
      <glyph glyph-name="uni1E82" unicode="&#x1E82;" d="M215 0Q206 0 204 8L21 644Q18 655 30 655L96 655Q105 655 107 647L223 234Q230 211 236 187.50Q242 164 248.50 140.50Q255 117 261 93L262 93Q273 128 283.50 162Q294 196 304 230L388 509L352 634Q351 639 353.50 642Q356 645 361 645L429 645Q438 645 440 636L553 221Q562 189 570.50 157Q579 125 588 93L589 93Q595 116 601 139Q607 162 613 185Q619 208 625 231L737 647Q739 655 748 655L817 655Q829 655 826 644L650 8Q648 0 639 0L544 0Q535 0 533 8L465 243Q455 276 446 309Q437 342 428 375L427 375Q417 343 407.50 310.50Q398 278 388 246L317 8Q316 4 313.50 2Q311 0 306 0L215 0M377 710Q372 710 371 713Q370 716 372 720L428 822Q432 829 438 829L511 829Q516 829 517.50 825.50Q519 822 516 817L444 716Q440 710 433 710L377 710Z"  horiz-adv-x="847" vert-adv-y="1000"  />

      
      <glyph glyph-name="uni0174" unicode="&#x0174;" d="M215 0Q206 0 204 8L21 644Q18 655 30 655L96 655Q105 655 107 647L223 234Q230 211 236 187.50Q242 164 248.50 140.50Q255 117 261 93L262 93Q273 128 283.50 162Q294 196 304 230L388 509L352 634Q351 639 353.50 642Q356 645 361 645L429 645Q438 645 440 636L553 221Q562 189 570.50 157Q579 125 588 93L589 93Q595 116 601 139Q607 162 613 185Q619 208 625 231L737 647Q739 655 748 655L817 655Q829 655 826 644L650 8Q648 0 639 0L544 0Q535 0 533 8L465 243Q455 276 446 309Q437 342 428 375L427 375Q417 343 407.50 310.50Q398 278 388 246L317 8Q316 4 313.50 2Q311 0 306 0L215 0M295 718Q284 713 284 724L284 774Q284 781 291 784L417 840Q424 844 431 840L557 784Q564 781 564 774L564 724Q564 713 553 718L424 764L295 718Z"  horiz-adv-x="847" vert-adv-y="1000"  />

      
      <glyph glyph-name="uni1E84" unicode="&#x1E84;" d="M215 0Q206 0 204 8L21 644Q18 655 30 655L96 655Q105 655 107 647L223 234Q230 211 236 187.50Q242 164 248.50 140.50Q255 117 261 93L262 93Q273 128 283.50 162Q294 196 304 230L388 509L352 634Q351 639 353.50 642Q356 645 361 645L429 645Q438 645 440 636L553 221Q562 189 570.50 157Q579 125 588 93L589 93Q595 116 601 139Q607 162 613 185Q619 208 625 231L737 647Q739 655 748 655L817 655Q829 655 826 644L650 8Q648 0 639 0L544 0Q535 0 533 8L465 243Q455 276 446 309Q437 342 428 375L427 375Q417 343 407.50 310.50Q398 278 388 246L317 8Q316 4 313.50 2Q311 0 306 0L215 0M340 711Q312 711 300 725.50Q288 740 288 762L288 772Q288 795 300 809Q312 823 340 823Q368 823 380 809Q392 795 392 772L392 762Q392 740 380 725.50Q368 711 340 711M508 711Q480 711 468 725.50Q456 740 456 762L456 772Q456 795 468 809Q480 823 508 823Q536 823 548 809Q560 795 560 772L560 762Q560 740 548 725.50Q536 711 508 711Z"  horiz-adv-x="847" vert-adv-y="1000"  />

      
      <glyph glyph-name="uni1E80" unicode="&#x1E80;" d="M215 0Q206 0 204 8L21 644Q18 655 30 655L96 655Q105 655 107 647L223 234Q230 211 236 187.50Q242 164 248.50 140.50Q255 117 261 93L262 93Q273 128 283.50 162Q294 196 304 230L388 509L352 634Q351 639 353.50 642Q356 645 361 645L429 645Q438 645 440 636L553 221Q562 189 570.50 157Q579 125 588 93L589 93Q595 116 601 139Q607 162 613 185Q619 208 625 231L737 647Q739 655 748 655L817 655Q829 655 826 644L650 8Q648 0 639 0L544 0Q535 0 533 8L465 243Q455 276 446 309Q437 342 428 375L427 375Q417 343 407.50 310.50Q398 278 388 246L317 8Q316 4 313.50 2Q311 0 306 0L215 0M415 710Q408 710 404 716L332 817Q329 822 330.50 825.50Q332 829 337 829L410 829Q417 829 420 822L476 720Q478 716 477 713Q476 710 471 710L415 710Z"  horiz-adv-x="847" vert-adv-y="1000"  />

      
      <glyph glyph-name="uni58" unicode="&#x58;" d="M13 0Q7 0 5.50 3.50Q4 7 7 12L221 338L21 643Q18 648 19.50 651.50Q21 655 27 655L107 655Q114 655 118 649L231 476Q242 458 254.50 438.50Q267 419 278 401L279 401Q291 421 303.50 441Q316 461 329 480L438 649Q443 655 450 655L526 655Q532 655 533.50 651.50Q535 648 532 643L333 336L544 12Q547 7 545.50 3.50Q544 0 538 0L458 0Q451 0 446 6L327 189Q314 209 300.50 230.50Q287 252 275 272L274 272Q262 253 249 232Q236 211 223 191L104 7Q99 0 92 0L13 0Z"  horiz-adv-x="551" vert-adv-y="1000"  />

      
      <glyph glyph-name="uni59" unicode="&#x59;" d="M235 0Q225 0 225 10L225 225L11 643Q9 648 11 651.50Q13 655 18 655L94 655Q103 655 106 648L216 422Q229 396 242 368.50Q255 341 268 315L269 315Q283 343 296 370Q309 397 322 425L431 648Q434 655 443 655L517 655Q522 655 524 651.50Q526 648 524 643L310 225L310 10Q310 0 300 0L235 0Z"  horiz-adv-x="535" vert-adv-y="1000"  />

      
      <glyph glyph-name="unidd" unicode="&#xdd;" d="M235 0Q225 0 225 10L225 225L11 643Q9 648 11 651.50Q13 655 18 655L94 655Q103 655 106 648L216 422Q229 396 242 368.50Q255 341 268 315L269 315Q283 343 296 370Q309 397 322 425L431 648Q434 655 443 655L517 655Q522 655 524 651.50Q526 648 524 643L310 225L310 10Q310 0 300 0L235 0M221 710Q216 710 215 713Q214 716 216 720L272 822Q276 829 282 829L355 829Q360 829 361.50 825.50Q363 822 360 817L288 716Q284 710 277 710L221 710Z"  horiz-adv-x="535" vert-adv-y="1000"  />

      
      <glyph glyph-name="uni0176" unicode="&#x0176;" d="M235 0Q225 0 225 10L225 225L11 643Q9 648 11 651.50Q13 655 18 655L94 655Q103 655 106 648L216 422Q229 396 242 368.50Q255 341 268 315L269 315Q283 343 296 370Q309 397 322 425L431 648Q434 655 443 655L517 655Q522 655 524 651.50Q526 648 524 643L310 225L310 10Q310 0 300 0L235 0M139 718Q128 713 128 724L128 774Q128 781 135 784L261 840Q268 844 275 840L401 784Q408 781 408 774L408 724Q408 713 397 718L268 764L139 718Z"  horiz-adv-x="535" vert-adv-y="1000"  />

      
      <glyph glyph-name="uni0178" unicode="&#x0178;" d="M235 0Q225 0 225 10L225 225L11 643Q9 648 11 651.50Q13 655 18 655L94 655Q103 655 106 648L216 422Q229 396 242 368.50Q255 341 268 315L269 315Q283 343 296 370Q309 397 322 425L431 648Q434 655 443 655L517 655Q522 655 524 651.50Q526 648 524 643L310 225L310 10Q310 0 300 0L235 0M184 711Q156 711 144 725.50Q132 740 132 762L132 772Q132 795 144 809Q156 823 184 823Q212 823 224 809Q236 795 236 772L236 762Q236 740 224 725.50Q212 711 184 711M352 711Q324 711 312 725.50Q300 740 300 762L300 772Q300 795 312 809Q324 823 352 823Q380 823 392 809Q404 795 404 772L404 762Q404 740 392 725.50Q380 711 352 711Z"  horiz-adv-x="535" vert-adv-y="1000"  />

      
      <glyph glyph-name="uni1EF2" unicode="&#x1EF2;" d="M235 0Q225 0 225 10L225 225L11 643Q9 648 11 651.50Q13 655 18 655L94 655Q103 655 106 648L216 422Q229 396 242 368.50Q255 341 268 315L269 315Q283 343 296 370Q309 397 322 425L431 648Q434 655 443 655L517 655Q522 655 524 651.50Q526 648 524 643L310 225L310 10Q310 0 300 0L235 0M259 710Q252 710 248 716L176 817Q173 822 174.50 825.50Q176 829 181 829L254 829Q261 829 264 822L320 720Q322 716 321 713Q320 710 315 710L259 710Z"  horiz-adv-x="535" vert-adv-y="1000"  />

      
      <glyph glyph-name="uni5a" unicode="&#x5a;" d="M30 0Q20 0 20 9L20 11Q20 16 24 24L322 479Q338 504 354 528.50Q370 553 387 578L387 579Q359 578 330 578Q301 578 272 578L63 578Q53 578 53 588L53 645Q53 655 63 655L512 655Q522 655 522 646L522 644Q522 641 521 637.50Q520 634 518 631L224 186Q206 158 188.50 131Q171 104 152 77L152 76Q185 77 218 77Q251 77 284 77L489 77Q499 77 499 67L499 10Q499 0 489 0L30 0Z"  horiz-adv-x="545" vert-adv-y="1000"  />

      
      <glyph glyph-name="uni0179" unicode="&#x0179;" d="M30 0Q20 0 20 9L20 11Q20 16 24 24L322 479Q338 504 354 528.50Q370 553 387 578L387 579Q359 578 330 578Q301 578 272 578L63 578Q53 578 53 588L53 645Q53 655 63 655L512 655Q522 655 522 646L522 644Q522 641 521 637.50Q520 634 518 631L224 186Q206 158 188.50 131Q171 104 152 77L152 76Q185 77 218 77Q251 77 284 77L489 77Q499 77 499 67L499 10Q499 0 489 0L30 0M221 710Q216 710 215 713Q214 716 216 720L272 822Q276 829 282 829L355 829Q360 829 361.50 825.50Q363 822 360 817L288 716Q284 710 277 710L221 710Z"  horiz-adv-x="545" vert-adv-y="1000"  />

      
      <glyph glyph-name="uni017D" unicode="&#x017D;" d="M30 0Q20 0 20 9L20 11Q20 16 24 24L322 479Q338 504 354 528.50Q370 553 387 578L387 579Q359 578 330 578Q301 578 272 578L63 578Q53 578 53 588L53 645Q53 655 63 655L512 655Q522 655 522 646L522 644Q522 641 521 637.50Q520 634 518 631L224 186Q206 158 188.50 131Q171 104 152 77L152 76Q185 77 218 77Q251 77 284 77L489 77Q499 77 499 67L499 10Q499 0 489 0L30 0M261 718L135 774Q131 776 129.50 778Q128 780 128 784L128 834Q128 845 139 840L268 794L397 840Q408 845 408 834L408 784Q408 780 406.50 778Q405 776 401 774L275 718Q268 715 261 718Z"  horiz-adv-x="545" vert-adv-y="1000"  />

      
      <glyph glyph-name="uni017B" unicode="&#x017B;" d="M30 0Q20 0 20 9L20 11Q20 16 24 24L322 479Q338 504 354 528.50Q370 553 387 578L387 579Q359 578 330 578Q301 578 272 578L63 578Q53 578 53 588L53 645Q53 655 63 655L512 655Q522 655 522 646L522 644Q522 641 521 637.50Q520 634 518 631L224 186Q206 158 188.50 131Q171 104 152 77L152 76Q185 77 218 77Q251 77 284 77L489 77Q499 77 499 67L499 10Q499 0 489 0L30 0M268 725Q239 725 226 740.50Q213 756 213 780L213 790Q213 814 226 829.50Q239 845 268 845Q297 845 310 829.50Q323 814 323 790L323 780Q323 756 310 740.50Q297 725 268 725Z"  horiz-adv-x="545" vert-adv-y="1000"  />

      
      <glyph glyph-name="uni61" unicode="&#x61;" d="M358 0Q352 0 350 4Q348 8 346 14Q345 22 341.50 48.50Q338 75 337 96L334 134L334 333Q334 383 314 404Q294 425 244 425Q199 425 176.50 409.50Q154 394 154 363Q154 353 145 353L79 353Q69 353 68 372Q63 429 112.50 464.50Q162 500 247 500Q334 500 376.50 459Q419 418 419 335L419 121Q419 86 421 58.50Q423 31 426 11Q428 0 416 0L358 0M167-12Q109-12 78.50 23Q48 58 48 125Q48 177 68.50 210Q89 243 134.50 261Q180 279 256 285L350 293L350 228L254 220Q185 214 159 195Q133 176 133 131Q133 97 147 80Q161 63 189 63Q222 63 258 85.50Q294 108 353 169L353 94Q318 56 287.50 32.50Q257 9 228-1.50Q199-12 167-12Z"  horiz-adv-x="494" vert-adv-y="1000"  />

      
      <glyph glyph-name="unie1" unicode="&#xe1;" d="M358 0Q352 0 350 4Q348 8 346 14Q345 22 341.50 48.50Q338 75 337 96L334 134L334 333Q334 383 314 404Q294 425 244 425Q199 425 176.50 409.50Q154 394 154 363Q154 353 145 353L79 353Q69 353 68 372Q63 429 112.50 464.50Q162 500 247 500Q334 500 376.50 459Q419 418 419 335L419 121Q419 86 421 58.50Q423 31 426 11Q428 0 416 0L358 0M167-12Q109-12 78.50 23Q48 58 48 125Q48 177 68.50 210Q89 243 134.50 261Q180 279 256 285L350 293L350 228L254 220Q185 214 159 195Q133 176 133 131Q133 97 147 80Q161 63 189 63Q222 63 258 85.50Q294 108 353 169L353 94Q318 56 287.50 32.50Q257 9 228-1.50Q199-12 167-12M192 556Q188 556 186.50 559Q185 562 187 566L253 688Q257 695 265 695L335 695Q340 695 341.50 691.50Q343 688 340 684L257 562Q253 556 246 556L192 556Z"  horiz-adv-x="494" vert-adv-y="1000"  />

      
      <glyph glyph-name="uni0103" unicode="&#x0103;" d="M358 0Q352 0 350 4Q348 8 346 14Q345 22 341.50 48.50Q338 75 337 96L334 134L334 333Q334 383 314 404Q294 425 244 425Q199 425 176.50 409.50Q154 394 154 363Q154 353 145 353L79 353Q69 353 68 372Q63 429 112.50 464.50Q162 500 247 500Q334 500 376.50 459Q419 418 419 335L419 121Q419 86 421 58.50Q423 31 426 11Q428 0 416 0L358 0M167-12Q109-12 78.50 23Q48 58 48 125Q48 177 68.50 210Q89 243 134.50 261Q180 279 256 285L350 293L350 228L254 220Q185 214 159 195Q133 176 133 131Q133 97 147 80Q161 63 189 63Q222 63 258 85.50Q294 108 353 169L353 94Q318 56 287.50 32.50Q257 9 228-1.50Q199-12 167-12M243 556Q209 556 184.50 565.50Q160 575 145 586.50Q130 598 123 605Q119 609 119 617L119 671Q119 677 122 679.50Q125 682 130 677Q144 664 173.50 645.50Q203 627 243 627Q284 627 313.50 645.50Q343 664 356 677Q361 682 364 679.50Q367 677 367 671L367 617Q367 613 366 610Q365 607 363 605Q356 598 341 586.50Q326 575 302 565.50Q278 556 243 556Z"  horiz-adv-x="494" vert-adv-y="1000"  />

      
      <glyph glyph-name="unie2" unicode="&#xe2;" d="M358 0Q352 0 350 4Q348 8 346 14Q345 22 341.50 48.50Q338 75 337 96L334 134L334 333Q334 383 314 404Q294 425 244 425Q199 425 176.50 409.50Q154 394 154 363Q154 353 145 353L79 353Q69 353 68 372Q63 429 112.50 464.50Q162 500 247 500Q334 500 376.50 459Q419 418 419 335L419 121Q419 86 421 58.50Q423 31 426 11Q428 0 416 0L358 0M167-12Q109-12 78.50 23Q48 58 48 125Q48 177 68.50 210Q89 243 134.50 261Q180 279 256 285L350 293L350 228L254 220Q185 214 159 195Q133 176 133 131Q133 97 147 80Q161 63 189 63Q222 63 258 85.50Q294 108 353 169L353 94Q318 56 287.50 32.50Q257 9 228-1.50Q199-12 167-12M124 552Q113 546 113 556L113 607Q113 616 120 620L236 686Q243 691 250 686L366 620Q373 616 373 607L373 556Q373 546 362 552L243 611L124 552Z"  horiz-adv-x="494" vert-adv-y="1000"  />

      
      <glyph glyph-name="unie4" unicode="&#xe4;" d="M358 0Q352 0 350 4Q348 8 346 14Q345 22 341.50 48.50Q338 75 337 96L334 134L334 333Q334 383 314 404Q294 425 244 425Q199 425 176.50 409.50Q154 394 154 363Q154 353 145 353L79 353Q69 353 68 372Q63 429 112.50 464.50Q162 500 247 500Q334 500 376.50 459Q419 418 419 335L419 121Q419 86 421 58.50Q423 31 426 11Q428 0 416 0L358 0M167-12Q109-12 78.50 23Q48 58 48 125Q48 177 68.50 210Q89 243 134.50 261Q180 279 256 285L350 293L350 228L254 220Q185 214 159 195Q133 176 133 131Q133 97 147 80Q161 63 189 63Q222 63 258 85.50Q294 108 353 169L353 94Q318 56 287.50 32.50Q257 9 228-1.50Q199-12 167-12M158 570Q130 570 118 584.50Q106 599 106 621L106 631Q106 654 118 668Q130 682 158 682Q186 682 198 668Q210 654 210 631L210 621Q210 599 198 584.50Q186 570 158 570M327 570Q299 570 287 584.50Q275 599 275 621L275 631Q275 654 287 668Q299 682 327 682Q355 682 367 668Q379 654 379 631L379 621Q379 599 367 584.50Q355 570 327 570Z"  horiz-adv-x="494" vert-adv-y="1000"  />

      
      <glyph glyph-name="unie0" unicode="&#xe0;" d="M358 0Q352 0 350 4Q348 8 346 14Q345 22 341.50 48.50Q338 75 337 96L334 134L334 333Q334 383 314 404Q294 425 244 425Q199 425 176.50 409.50Q154 394 154 363Q154 353 145 353L79 353Q69 353 68 372Q63 429 112.50 464.50Q162 500 247 500Q334 500 376.50 459Q419 418 419 335L419 121Q419 86 421 58.50Q423 31 426 11Q428 0 416 0L358 0M167-12Q109-12 78.50 23Q48 58 48 125Q48 177 68.50 210Q89 243 134.50 261Q180 279 256 285L350 293L350 228L254 220Q185 214 159 195Q133 176 133 131Q133 97 147 80Q161 63 189 63Q222 63 258 85.50Q294 108 353 169L353 94Q318 56 287.50 32.50Q257 9 228-1.50Q199-12 167-12M239 556Q232 556 228 562L145 684Q142 688 143.50 691.50Q145 695 150 695L220 695Q229 695 232 688L298 566Q300 562 299 559Q298 556 293 556L239 556Z"  horiz-adv-x="494" vert-adv-y="1000"  />

      
      <glyph glyph-name="uni0101" unicode="&#x0101;" d="M358 0Q352 0 350 4Q348 8 346 14Q345 22 341.50 48.50Q338 75 337 96L334 134L334 333Q334 383 314 404Q294 425 244 425Q199 425 176.50 409.50Q154 394 154 363Q154 353 145 353L79 353Q69 353 68 372Q63 429 112.50 464.50Q162 500 247 500Q334 500 376.50 459Q419 418 419 335L419 121Q419 86 421 58.50Q423 31 426 11Q428 0 416 0L358 0M167-12Q109-12 78.50 23Q48 58 48 125Q48 177 68.50 210Q89 243 134.50 261Q180 279 256 285L350 293L350 228L254 220Q185 214 159 195Q133 176 133 131Q133 97 147 80Q161 63 189 63Q222 63 258 85.50Q294 108 353 169L353 94Q318 56 287.50 32.50Q257 9 228-1.50Q199-12 167-12M145 570Q135 570 135 580L135 632Q135 642 145 642L340 642Q350 642 350 632L350 580Q350 570 340 570L145 570Z"  horiz-adv-x="494" vert-adv-y="1000"  />

      
      <glyph glyph-name="uni0105" unicode="&#x0105;" d="M358 0Q352 0 350 4Q348 8 346 14Q345 22 341.50 48.50Q338 75 337 96L334 134L334 333Q334 383 314 404Q294 425 244 425Q199 425 176.50 409.50Q154 394 154 363Q154 353 145 353L79 353Q69 353 68 372Q63 429 112.50 464.50Q162 500 247 500Q334 500 376.50 459Q419 418 419 335L419 121Q419 86 421 58.50Q423 31 426 11Q428 0 416 0L358 0M167-12Q109-12 78.50 23Q48 58 48 125Q48 177 68.50 210Q89 243 134.50 261Q180 279 256 285L350 293L350 228L254 220Q185 214 159 195Q133 176 133 131Q133 97 147 80Q161 63 189 63Q222 63 258 85.50Q294 108 353 169L353 94Q318 56 287.50 32.50Q257 9 228-1.50Q199-12 167-12M391-197Q340-197 316-174.50Q292-152 292-116L292-104Q292-63 322-28.50Q352 6 402 23L422 12L422 1Q394-13 379-37Q364-61 364-87L364-97Q364-116 373.50-125Q383-134 405-134Q413-134 418.50-134Q424-134 430-133Q439-132 439-140L439-184Q439-188 437.50-190.50Q436-193 431-194Q421-195 410.50-196Q400-197 391-197Z"  horiz-adv-x="494" vert-adv-y="1000"  />

      
      <glyph glyph-name="unie5" unicode="&#xe5;" d="M358 0Q352 0 350 4Q348 8 346 14Q345 22 341.50 48.50Q338 75 337 96L334 134L334 333Q334 383 314 404Q294 425 244 425Q199 425 176.50 409.50Q154 394 154 363Q154 353 145 353L79 353Q69 353 68 372Q63 429 112.50 464.50Q162 500 247 500Q334 500 376.50 459Q419 418 419 335L419 121Q419 86 421 58.50Q423 31 426 11Q428 0 416 0L358 0M167-12Q109-12 78.50 23Q48 58 48 125Q48 177 68.50 210Q89 243 134.50 261Q180 279 256 285L350 293L350 228L254 220Q185 214 159 195Q133 176 133 131Q133 97 147 80Q161 63 189 63Q222 63 258 85.50Q294 108 353 169L353 94Q318 56 287.50 32.50Q257 9 228-1.50Q199-12 167-12M243 551Q193 551 162.50 576Q132 601 132 647Q132 694 162 718.50Q192 743 243 743Q293 743 323.50 718.50Q354 694 354 647Q354 601 324 576Q294 551 243 551M243 601Q271 601 282.50 614Q294 627 294 647Q294 667 282.50 680Q271 693 243 693Q215 693 203.50 680Q192 667 192 647Q192 627 203.50 614Q215 601 243 601Z"  horiz-adv-x="494" vert-adv-y="1000"  />

      
      <glyph glyph-name="unie3" unicode="&#xe3;" d="M358 0Q352 0 350 4Q348 8 346 14Q345 22 341.50 48.50Q338 75 337 96L334 134L334 333Q334 383 314 404Q294 425 244 425Q199 425 176.50 409.50Q154 394 154 363Q154 353 145 353L79 353Q69 353 68 372Q63 429 112.50 464.50Q162 500 247 500Q334 500 376.50 459Q419 418 419 335L419 121Q419 86 421 58.50Q423 31 426 11Q428 0 416 0L358 0M167-12Q109-12 78.50 23Q48 58 48 125Q48 177 68.50 210Q89 243 134.50 261Q180 279 256 285L350 293L350 228L254 220Q185 214 159 195Q133 176 133 131Q133 97 147 80Q161 63 189 63Q222 63 258 85.50Q294 108 353 169L353 94Q318 56 287.50 32.50Q257 9 228-1.50Q199-12 167-12M293 567Q273 567 257 573.50Q241 580 225.50 586Q210 592 191 592Q174 592 155 585Q136 578 125 573Q113 568 113 579L113 626Q113 635 119 639Q128 646 147.50 655Q167 664 193 664Q218 664 234.50 658Q251 652 264.50 645.50Q278 639 295 639Q312 639 331 646Q350 653 361 658Q373 663 373 652L373 605Q373 601 371.50 597.50Q370 594 367 592Q358 585 338.50 576Q319 567 293 567Z"  horiz-adv-x="494" vert-adv-y="1000"  />

      
      <glyph glyph-name="unie6" unicode="&#xe6;" d="M164-12Q108-12 78 23Q48 58 48 125Q48 178 68.50 211.50Q89 245 135 263.50Q181 282 256 289L334 296L334 333Q334 383 314 404Q294 425 244 425Q199 425 176.50 409.50Q154 394 154 363Q154 353 145 353L79 353Q69 353 68 372Q65 410 85.50 438.50Q106 467 145 483.50Q184 500 236 500Q288 500 324.50 483Q361 466 381 433Q405 465 446 482.50Q487 500 537 500Q623 500 670.50 450Q718 400 718 311L718 237Q718 227 708 227L415 227L415 191Q415 122 440.50 92.50Q466 63 525 63Q571 63 597 78Q623 93 623 118Q623 135 634 135L699 135Q709 135 709 112Q709 56 657 22Q605-12 517-12Q451-12 409.50 12.50Q368 37 350 86Q301 36 255.50 12Q210-12 164-12M189 63Q219 63 251.50 83Q284 103 336 152Q335 163 334.50 176Q334 189 334 201L334 227L254 220Q185 214 159 195Q133 176 133 131Q133 97 147 80Q161 63 189 63M415 296L633 296L633 298Q633 363 608 394Q583 425 529 425Q473 425 444 393Q415 361 415 297L415 296Z"  horiz-adv-x="778" vert-adv-y="1000"  />

      
      <glyph glyph-name="uni62" unicode="&#x62;" d="M268-12Q236-12 207.50-8Q179-4 147.50 1Q116 6 75 8L75 673Q75 683 85 683L150 683Q160 683 160 673L160 73Q183 69 209.50 66Q236 63 256 63Q324 63 355.50 97Q387 131 387 199L387 309Q387 369 366.50 397Q346 425 305 425Q270 425 234 404.50Q198 384 141 333L145 416Q192 460 234.50 480Q277 500 323 500Q396 500 434 454Q472 408 472 314L472 191Q472 91 421.50 39.50Q371-12 268-12Z"  horiz-adv-x="536" vert-adv-y="1000"  />

      
      <glyph glyph-name="uni63" unicode="&#x63;" d="M266-12Q166-12 114 38Q62 88 62 182L62 306Q62 400 115 450Q168 500 268 500Q327 500 369 482Q411 464 434 432.50Q457 401 457 358Q457 335 447 335L381 335Q377 335 374.50 339Q372 343 372 351Q372 386 344 405.50Q316 425 268 425Q207 425 177 394Q147 363 147 298L147 190Q147 126 177 94.50Q207 63 267 63Q315 63 343 84Q371 105 371 136Q371 152 380 152L446 152Q456 152 456 143Q456 72 407 30Q358-12 266-12Z"  horiz-adv-x="517" vert-adv-y="1000"  />

      
      <glyph glyph-name="uni0107" unicode="&#x0107;" d="M266-12Q166-12 114 38Q62 88 62 182L62 306Q62 400 115 450Q168 500 268 500Q327 500 369 482Q411 464 434 432.50Q457 401 457 358Q457 335 447 335L381 335Q377 335 374.50 339Q372 343 372 351Q372 386 344 405.50Q316 425 268 425Q207 425 177 394Q147 363 147 298L147 190Q147 126 177 94.50Q207 63 267 63Q315 63 343 84Q371 105 371 136Q371 152 380 152L446 152Q456 152 456 143Q456 72 407 30Q358-12 266-12M208 556Q204 556 202.50 559Q201 562 203 566L269 688Q273 695 281 695L351 695Q356 695 357.50 691.50Q359 688 356 684L273 562Q269 556 262 556L208 556Z"  horiz-adv-x="517" vert-adv-y="1000"  />

      
      <glyph glyph-name="uni010D" unicode="&#x010D;" d="M266-12Q166-12 114 38Q62 88 62 182L62 306Q62 400 115 450Q168 500 268 500Q327 500 369 482Q411 464 434 432.50Q457 401 457 358Q457 335 447 335L381 335Q377 335 374.50 339Q372 343 372 351Q372 386 344 405.50Q316 425 268 425Q207 425 177 394Q147 363 147 298L147 190Q147 126 177 94.50Q207 63 267 63Q315 63 343 84Q371 105 371 136Q371 152 380 152L446 152Q456 152 456 143Q456 72 407 30Q358-12 266-12M252 552L136 618Q129 622 129 631L129 682Q129 692 140 686L259 627L378 686Q389 692 389 682L389 631Q389 622 382 618L266 552Q259 547 252 552Z"  horiz-adv-x="517" vert-adv-y="1000"  />

      
      <glyph glyph-name="unie7" unicode="&#xe7;" d="M266-12Q166-12 114 38Q62 88 62 182L62 306Q62 400 115 450Q168 500 268 500Q327 500 369 482Q411 464 434 432.50Q457 401 457 358Q457 335 447 335L381 335Q377 335 374.50 339Q372 343 372 351Q372 386 344 405.50Q316 425 268 425Q207 425 177 394Q147 363 147 298L147 190Q147 126 177 94.50Q207 63 267 63Q315 63 343 84Q371 105 371 136Q371 152 380 152L446 152Q456 152 456 143Q456 72 407 30Q358-12 266-12M248-197Q238-197 228-196Q218-195 207-193Q199-192 199-185L199-148Q199-140 207-141Q214-142 222-142.50Q230-143 235-143Q257-143 266.50-136Q276-129 276-119L276-106Q276-91 267.50-85.50Q259-80 242-80L219-80Q212-80 212-73Q212-68 212.50-62.50Q213-57 214-53L237 22Q239 28 246 28L294 28Q302 28 299 17L281-41L290-41Q316-41 329.50-58.50Q343-76 343-105L343-120Q343-160 319.50-178.50Q296-197 248-197Z"  horiz-adv-x="517" vert-adv-y="1000"  />

      
      <glyph glyph-name="uni010B" unicode="&#x010B;" d="M266-12Q166-12 114 38Q62 88 62 182L62 306Q62 400 115 450Q168 500 268 500Q327 500 369 482Q411 464 434 432.50Q457 401 457 358Q457 335 447 335L381 335Q377 335 374.50 339Q372 343 372 351Q372 386 344 405.50Q316 425 268 425Q207 425 177 394Q147 363 147 298L147 190Q147 126 177 94.50Q207 63 267 63Q315 63 343 84Q371 105 371 136Q371 152 380 152L446 152Q456 152 456 143Q456 72 407 30Q358-12 266-12M259 570Q230 570 217 585.50Q204 601 204 625L204 635Q204 659 217 674.50Q230 690 259 690Q288 690 301 674.50Q314 659 314 635L314 625Q314 601 301 585.50Q288 570 259 570Z"  horiz-adv-x="517" vert-adv-y="1000"  />

      
      <glyph glyph-name="uni64" unicode="&#x64;" d="M209-12Q139-12 101.50 35Q64 82 64 174L64 299Q64 394 112 447Q160 500 245 500Q284 500 327 489.50Q370 479 392 463L397 390Q365 407 327 416Q289 425 260 425Q204 425 176.50 391Q149 357 149 289L149 169Q149 116 169.50 89.50Q190 63 231 63Q256 63 280 72.50Q304 82 333 104.50Q362 127 401 166L399 88Q365 54 334.50 31.50Q304 9 273.50-1.50Q243-12 209-12M406 0Q401 0 398 2.50Q395 5 394 11Q392 26 389 49Q386 72 387 87L382 132L382 673Q382 683 392 683L457 683Q467 683 467 673L467 113Q467 99 468 79.50Q469 60 470.50 42Q472 24 474 14Q477 0 464 0L406 0Z"  horiz-adv-x="543" vert-adv-y="1000"  />

      
      <glyph glyph-name="unif0" unicode="&#xf0;" d="M266-12Q166-12 114 34Q62 80 62 175L62 280Q62 372 104.50 419Q147 466 218 466Q272 466 316 445.50Q360 425 392 382L392 296Q364 341 321.50 365.50Q279 390 235 390Q193 390 170 360.50Q147 331 147 268L147 183Q147 116 176 88Q205 60 266 60Q328 60 357.50 95.50Q387 131 387 197L387 306Q393 369 379.50 423Q366 477 336.50 519Q307 561 265.50 590Q224 619 174 631Q162 634 159.50 638Q157 642 161 648L188 687Q192 693 196.50 694Q201 695 209 693Q288 679 346.50 629.50Q405 580 437.50 508.50Q470 437 470 355L470 195Q470 95 418 41.50Q366-12 266-12M193 515Q185 511 180 522L162 560Q159 568 168 572L434 692Q442 696 447 685L464 647Q466 643 464 640Q462 637 458 635L193 515Z"  horiz-adv-x="532" vert-adv-y="1000"  />

      
      <glyph glyph-name="uni010F" unicode="&#x010F;" d="M209-12Q139-12 101.50 35Q64 82 64 174L64 299Q64 394 112 447Q160 500 245 500Q284 500 327 489.50Q370 479 392 463L397 390Q365 407 327 416Q289 425 260 425Q204 425 176.50 391Q149 357 149 289L149 169Q149 116 169.50 89.50Q190 63 231 63Q256 63 280 72.50Q304 82 333 104.50Q362 127 401 166L399 88Q365 54 334.50 31.50Q304 9 273.50-1.50Q243-12 209-12M406 0Q401 0 398 2.50Q395 5 394 11Q392 26 389 49Q386 72 387 87L382 132L382 673Q382 683 392 683L457 683Q467 683 467 673L467 113Q467 99 468 79.50Q469 60 470.50 42Q472 24 474 14Q477 0 464 0L406 0M536 528Q525 528 527 539L541 596Q525 601 518.50 609.50Q512 618 512 634L512 659Q512 675 524 685Q536 695 556 695Q582 695 593.50 685Q605 675 605 659L605 633Q605 620 603.50 609Q602 598 597 586L579 536Q576 528 567 528L536 528Z"  horiz-adv-x="543" vert-adv-y="1000"  />

      
      <glyph glyph-name="uni0111" unicode="&#x0111;" d="M277 553Q267 553 267 563L267 613Q267 623 277 623L538 623Q548 623 548 613L548 563Q548 553 538 553L467 553L277 553M209-12Q139-12 101.50 35Q64 82 64 174L64 299Q64 394 112 447Q160 500 245 500Q284 500 327 489.50Q370 479 392 463L397 390Q365 407 327 416Q289 425 260 425Q204 425 176.50 391Q149 357 149 289L149 169Q149 116 169.50 89.50Q190 63 231 63Q256 63 280 72.50Q304 82 333 104.50Q362 127 401 166L399 88Q365 54 334.50 31.50Q304 9 273.50-1.50Q243-12 209-12M406 0Q401 0 398 2.50Q395 5 394 11Q392 26 389 49Q386 72 387 87L382 132L382 673Q382 683 392 683L457 683Q467 683 467 673L467 113Q467 99 468 79.50Q469 60 470.50 42Q472 24 474 14Q477 0 464 0L406 0Z"  horiz-adv-x="542" vert-adv-y="1000"  />

      
      <glyph glyph-name="uni65" unicode="&#x65;" d="M261-12Q165-12 113.50 33Q62 78 62 166L62 306Q62 401 113 450.50Q164 500 261 500Q358 500 408.50 451.50Q459 403 459 311L459 233Q459 223 449 223L147 223L147 191Q147 124 175 93.50Q203 63 266 63Q313 63 338.50 78.50Q364 94 364 124Q364 135 375 135L440 135Q448 135 450 126Q454 62 403 25Q352-12 261-12M147 296L374 296L374 302Q374 365 346 395Q318 425 262 425Q204 425 175.50 394Q147 363 147 301L147 296Z"  horiz-adv-x="519" vert-adv-y="1000"  />

      
      <glyph glyph-name="unie9" unicode="&#xe9;" d="M261-12Q165-12 113.50 33Q62 78 62 166L62 306Q62 401 113 450.50Q164 500 261 500Q358 500 408.50 451.50Q459 403 459 311L459 233Q459 223 449 223L147 223L147 191Q147 124 175 93.50Q203 63 266 63Q313 63 338.50 78.50Q364 94 364 124Q364 135 375 135L440 135Q448 135 450 126Q454 62 403 25Q352-12 261-12M147 296L374 296L374 302Q374 365 346 395Q318 425 262 425Q204 425 175.50 394Q147 363 147 301L147 296M207 568Q203 568 201.50 571Q200 574 202 578L268 700Q272 707 280 707L350 707Q355 707 356.50 703.50Q358 700 355 696L272 574Q268 568 261 568L207 568Z"  horiz-adv-x="519" vert-adv-y="1000"  />

      
      <glyph glyph-name="uni011B" unicode="&#x011B;" d="M261-12Q165-12 113.50 33Q62 78 62 166L62 306Q62 401 113 450.50Q164 500 261 500Q358 500 408.50 451.50Q459 403 459 311L459 233Q459 223 449 223L147 223L147 191Q147 124 175 93.50Q203 63 266 63Q313 63 338.50 78.50Q364 94 364 124Q364 135 375 135L440 135Q448 135 450 126Q454 62 403 25Q352-12 261-12M147 296L374 296L374 302Q374 365 346 395Q318 425 262 425Q204 425 175.50 394Q147 363 147 301L147 296M251 564L135 630Q128 634 128 643L128 694Q128 704 139 698L258 639L377 698Q388 704 388 694L388 643Q388 634 381 630L265 564Q258 559 251 564Z"  horiz-adv-x="519" vert-adv-y="1000"  />

      
      <glyph glyph-name="uniea" unicode="&#xea;" d="M261-12Q165-12 113.50 33Q62 78 62 166L62 306Q62 401 113 450.50Q164 500 261 500Q358 500 408.50 451.50Q459 403 459 311L459 233Q459 223 449 223L147 223L147 191Q147 124 175 93.50Q203 63 266 63Q313 63 338.50 78.50Q364 94 364 124Q364 135 375 135L440 135Q448 135 450 126Q454 62 403 25Q352-12 261-12M147 296L374 296L374 302Q374 365 346 395Q318 425 262 425Q204 425 175.50 394Q147 363 147 301L147 296M139 564Q128 558 128 568L128 619Q128 628 135 632L251 698Q258 703 265 698L381 632Q388 628 388 619L388 568Q388 558 377 564L258 623L139 564Z"  horiz-adv-x="519" vert-adv-y="1000"  />

      
      <glyph glyph-name="unieb" unicode="&#xeb;" d="M261-12Q165-12 113.50 33Q62 78 62 166L62 306Q62 401 113 450.50Q164 500 261 500Q358 500 408.50 451.50Q459 403 459 311L459 233Q459 223 449 223L147 223L147 191Q147 124 175 93.50Q203 63 266 63Q313 63 338.50 78.50Q364 94 364 124Q364 135 375 135L440 135Q448 135 450 126Q454 62 403 25Q352-12 261-12M147 296L374 296L374 302Q374 365 346 395Q318 425 262 425Q204 425 175.50 394Q147 363 147 301L147 296M173 582Q145 582 133 596.50Q121 611 121 633L121 643Q121 666 133 680Q145 694 173 694Q201 694 213 680Q225 666 225 643L225 633Q225 611 213 596.50Q201 582 173 582M342 582Q314 582 302 596.50Q290 611 290 633L290 643Q290 666 302 680Q314 694 342 694Q370 694 382 680Q394 666 394 643L394 633Q394 611 382 596.50Q370 582 342 582Z"  horiz-adv-x="519" vert-adv-y="1000"  />

      
      <glyph glyph-name="uni0117" unicode="&#x0117;" d="M261-12Q165-12 113.50 33Q62 78 62 166L62 306Q62 401 113 450.50Q164 500 261 500Q358 500 408.50 451.50Q459 403 459 311L459 233Q459 223 449 223L147 223L147 191Q147 124 175 93.50Q203 63 266 63Q313 63 338.50 78.50Q364 94 364 124Q364 135 375 135L440 135Q448 135 450 126Q454 62 403 25Q352-12 261-12M147 296L374 296L374 302Q374 365 346 395Q318 425 262 425Q204 425 175.50 394Q147 363 147 301L147 296M258 582Q229 582 216 597.50Q203 613 203 637L203 647Q203 671 216 686.50Q229 702 258 702Q287 702 300 686.50Q313 671 313 647L313 637Q313 613 300 597.50Q287 582 258 582Z"  horiz-adv-x="519" vert-adv-y="1000"  />

      
      <glyph glyph-name="unie8" unicode="&#xe8;" d="M261-12Q165-12 113.50 33Q62 78 62 166L62 306Q62 401 113 450.50Q164 500 261 500Q358 500 408.50 451.50Q459 403 459 311L459 233Q459 223 449 223L147 223L147 191Q147 124 175 93.50Q203 63 266 63Q313 63 338.50 78.50Q364 94 364 124Q364 135 375 135L440 135Q448 135 450 126Q454 62 403 25Q352-12 261-12M147 296L374 296L374 302Q374 365 346 395Q318 425 262 425Q204 425 175.50 394Q147 363 147 301L147 296M254 568Q247 568 243 574L160 696Q157 700 158.50 703.50Q160 707 165 707L235 707Q244 707 247 700L313 578Q315 574 314 571Q313 568 308 568L254 568Z"  horiz-adv-x="519" vert-adv-y="1000"  />

      
      <glyph glyph-name="uni0113" unicode="&#x0113;" d="M261-12Q165-12 113.50 33Q62 78 62 166L62 306Q62 401 113 450.50Q164 500 261 500Q358 500 408.50 451.50Q459 403 459 311L459 233Q459 223 449 223L147 223L147 191Q147 124 175 93.50Q203 63 266 63Q313 63 338.50 78.50Q364 94 364 124Q364 135 375 135L440 135Q448 135 450 126Q454 62 403 25Q352-12 261-12M147 296L374 296L374 302Q374 365 346 395Q318 425 262 425Q204 425 175.50 394Q147 363 147 301L147 296M160 582Q150 582 150 592L150 644Q150 654 160 654L355 654Q365 654 365 644L365 592Q365 582 355 582L160 582Z"  horiz-adv-x="519" vert-adv-y="1000"  />

      
      <glyph glyph-name="uni0119" unicode="&#x0119;" d="M261-12Q165-12 113.50 33Q62 78 62 166L62 306Q62 401 113 450.50Q164 500 261 500Q358 500 408.50 451.50Q459 403 459 311L459 233Q459 223 449 223L147 223L147 191Q147 124 175 93.50Q203 63 266 63Q313 63 338.50 78.50Q364 94 364 124Q364 135 375 135L440 135Q448 135 450 126Q454 62 403 25Q352-12 261-12M147 296L374 296L374 302Q374 365 346 395Q318 425 262 425Q204 425 175.50 394Q147 363 147 301L147 296M326-196Q275-196 251-173.50Q227-151 227-115L227-103Q227-62 257-27.50Q287 7 337 24L357 13L357 2Q329-12 314-36Q299-60 299-86L299-96Q299-115 308.50-124Q318-133 340-133Q348-133 353.50-133Q359-133 365-132Q374-131 374-139L374-183Q374-187 372.50-189.50Q371-192 366-193Q356-194 345.50-195Q335-196 326-196Z"  horiz-adv-x="519" vert-adv-y="1000"  />

      
      <glyph glyph-name="uni66" unicode="&#x66;" d="M117 0Q113 0 110 3Q107 6 107 10L107 415L30 415Q26 415 23 418Q20 421 20 425L20 478Q20 483 23 485.50Q26 488 30 488L107 488L107 540Q107 614 150.50 654.50Q194 695 270 695Q293 695 317 690.50Q341 686 358 679Q377 672 377 662L377 609Q377 603 372.50 601Q368 599 354 605Q338 612 316 616.50Q294 621 276 621Q235 621 213.50 600Q192 579 192 538L192 488L337 488Q347 488 347 478L347 425Q347 421 344.50 418Q342 415 337 415L192 415L192 10Q192 6 189.50 3Q187 0 182 0L117 0Z"  horiz-adv-x="367" vert-adv-y="1000"  />

      
      <glyph glyph-name="uni67" unicode="&#x67;" d="M255-197Q138-197 86.50-165.50Q35-134 35-70Q35-29 54.50 1.50Q74 32 114 51L181 24Q151 15 137-5.50Q123-26 123-54Q123-94 153-109.50Q183-125 259-125Q338-125 368.50-109Q399-93 399-50Q399-21 385-7Q371 7 339 8L154 18Q123 20 97.50 41.50Q72 63 72 109Q72 130 78.50 146.50Q85 163 99.50 178Q114 193 138 211L192 179Q170 170 160 157Q150 144 150 127Q150 109 162 101.50Q174 94 199 92L365 82Q424 78 453.50 44.50Q483 11 483-54Q483-130 428.50-163.50Q374-197 255-197M263 158Q169 158 124 200Q79 242 79 329Q79 416 124.50 458Q170 500 266 500Q358 500 402.50 457.50Q447 415 447 328Q447 241 402.50 199.50Q358 158 263 158M263 232Q319 232 340.50 253.50Q362 275 362 328Q362 382 340 404Q318 426 263 426Q208 426 186 404Q164 382 164 328Q164 275 186 253.50Q208 232 263 232M385 444L315 474Q320 521 325.50 552.50Q331 584 336 606Q339 618 348 618L411 618Q422 618 419 608Q409 577 402 542Q395 507 385 444Z"  horiz-adv-x="517" vert-adv-y="1000"  />

      
      <glyph glyph-name="uni011F" unicode="&#x011F;" d="M255-197Q138-197 86.50-165.50Q35-134 35-70Q35-29 54.50 1.50Q74 32 114 51L181 24Q151 15 137-5.50Q123-26 123-54Q123-94 153-109.50Q183-125 259-125Q338-125 368.50-109Q399-93 399-50Q399-21 385-7Q371 7 339 8L154 18Q123 20 97.50 41.50Q72 63 72 109Q72 130 78.50 146.50Q85 163 99.50 178Q114 193 138 211L192 179Q170 170 160 157Q150 144 150 127Q150 109 162 101.50Q174 94 199 92L365 82Q424 78 453.50 44.50Q483 11 483-54Q483-130 428.50-163.50Q374-197 255-197M263 158Q169 158 124 200Q79 242 79 329Q79 416 124.50 458Q170 500 266 500Q358 500 402.50 457.50Q447 415 447 328Q447 241 402.50 199.50Q358 158 263 158M263 232Q319 232 340.50 253.50Q362 275 362 328Q362 382 340 404Q318 426 263 426Q208 426 186 404Q164 382 164 328Q164 275 186 253.50Q208 232 263 232M267 556Q233 556 208.50 565.50Q184 575 169 586.50Q154 598 147 605Q143 609 143 617L143 671Q143 677 146 679.50Q149 682 154 677Q168 664 197.50 645.50Q227 627 267 627Q308 627 337.50 645.50Q367 664 380 677Q385 682 388 679.50Q391 677 391 671L391 617Q391 613 390 610Q389 607 387 605Q380 598 365 586.50Q350 575 326 565.50Q302 556 267 556Z"  horiz-adv-x="517" vert-adv-y="1000"  />

      
      <glyph glyph-name="uni0123" unicode="&#x0123;" d="M255-197Q138-197 86.50-165.50Q35-134 35-70Q35-29 54.50 1.50Q74 32 114 51L181 24Q151 15 137-5.50Q123-26 123-54Q123-94 153-109.50Q183-125 259-125Q338-125 368.50-109Q399-93 399-50Q399-21 385-7Q371 7 339 8L154 18Q123 20 97.50 41.50Q72 63 72 109Q72 130 78.50 146.50Q85 163 99.50 178Q114 193 138 211L192 179Q170 170 160 157Q150 144 150 127Q150 109 162 101.50Q174 94 199 92L365 82Q424 78 453.50 44.50Q483 11 483-54Q483-130 428.50-163.50Q374-197 255-197M263 158Q169 158 124 200Q79 242 79 329Q79 416 124.50 458Q170 500 266 500Q358 500 402.50 457.50Q447 415 447 328Q447 241 402.50 199.50Q358 158 263 158M263 232Q319 232 340.50 253.50Q362 275 362 328Q362 382 340 404Q318 426 263 426Q208 426 186 404Q164 382 164 328Q164 275 186 253.50Q208 232 263 232M269 563Q243 563 231.50 574Q220 585 220 604L220 622Q220 636 222 648Q224 660 228 672L248 732Q250 738 258 738L294 738Q302 738 300 729L284 662Q300 657 306.50 647Q313 637 313 621L313 604Q313 585 301 574Q289 563 269 563Z"  horiz-adv-x="517" vert-adv-y="1000"  />

      
      <glyph glyph-name="uni0121" unicode="&#x0121;" d="M255-197Q138-197 86.50-165.50Q35-134 35-70Q35-29 54.50 1.50Q74 32 114 51L181 24Q151 15 137-5.50Q123-26 123-54Q123-94 153-109.50Q183-125 259-125Q338-125 368.50-109Q399-93 399-50Q399-21 385-7Q371 7 339 8L154 18Q123 20 97.50 41.50Q72 63 72 109Q72 130 78.50 146.50Q85 163 99.50 178Q114 193 138 211L192 179Q170 170 160 157Q150 144 150 127Q150 109 162 101.50Q174 94 199 92L365 82Q424 78 453.50 44.50Q483 11 483-54Q483-130 428.50-163.50Q374-197 255-197M263 158Q169 158 124 200Q79 242 79 329Q79 416 124.50 458Q170 500 266 500Q358 500 402.50 457.50Q447 415 447 328Q447 241 402.50 199.50Q358 158 263 158M263 232Q319 232 340.50 253.50Q362 275 362 328Q362 382 340 404Q318 426 263 426Q208 426 186 404Q164 382 164 328Q164 275 186 253.50Q208 232 263 232M267 570Q238 570 225 585.50Q212 601 212 625L212 635Q212 659 225 674.50Q238 690 267 690Q296 690 309 674.50Q322 659 322 635L322 625Q322 601 309 585.50Q296 570 267 570Z"  horiz-adv-x="517" vert-adv-y="1000"  />

      
      <glyph glyph-name="uni68" unicode="&#x68;" d="M406 0Q396 0 396 10L396 329Q396 378 376 401.50Q356 425 315 425Q275 425 234 400.50Q193 376 145 324L146 402Q179 437 209 458.50Q239 480 269.50 490Q300 500 334 500Q406 500 443.50 458Q481 416 481 333L481 10Q481 0 471 0L406 0M85 0Q75 0 75 10L75 673Q75 683 85 683L150 683Q160 683 160 673L160 10Q160 0 150 0L85 0Z"  horiz-adv-x="556" vert-adv-y="1000"  />

      
      <glyph glyph-name="uni0127" unicode="&#x0127;" d="M4 553Q-6 553-6 563L-6 613Q-6 623 4 623L265 623Q275 623 275 613L275 563Q275 553 265 553L75 553L4 553M406 0Q396 0 396 10L396 329Q396 378 376 401.50Q356 425 315 425Q275 425 234 400.50Q193 376 145 324L146 402Q179 437 209 458.50Q239 480 269.50 490Q300 500 334 500Q406 500 443.50 458Q481 416 481 333L481 10Q481 0 471 0L406 0M85 0Q75 0 75 10L75 673Q75 683 85 683L150 683Q160 683 160 673L160 10Q160 0 150 0L85 0Z"  horiz-adv-x="556" vert-adv-y="1000"  />

      
      <glyph glyph-name="uni69" unicode="&#x69;" d="M85 0Q75 0 75 10L75 478Q75 488 85 488L150 488Q160 488 160 478L160 10Q160 0 150 0L85 0M118 570Q89 570 76 585.50Q63 601 63 625L63 635Q63 659 76 674.50Q89 690 118 690Q147 690 160 674.50Q173 659 173 635L173 625Q173 601 160 585.50Q147 570 118 570Z"  horiz-adv-x="235" vert-adv-y="1000"  />

      
      <glyph glyph-name="uni0131" unicode="&#x0131;" d="M85 0Q75 0 75 10L75 478Q75 488 85 488L150 488Q160 488 160 478L160 10Q160 0 150 0L85 0Z"  horiz-adv-x="235" vert-adv-y="1000"  />

      
      <glyph glyph-name="unied" unicode="&#xed;" d="M85 0Q75 0 75 10L75 478Q75 488 85 488L150 488Q160 488 160 478L160 10Q160 0 150 0L85 0M67 556Q63 556 61.50 559Q60 562 62 566L128 688Q132 695 140 695L210 695Q215 695 216.50 691.50Q218 688 215 684L132 562Q128 556 121 556L67 556Z"  horiz-adv-x="235" vert-adv-y="1000"  />

      
      <glyph glyph-name="uniee" unicode="&#xee;" d="M85 0Q75 0 75 10L75 478Q75 488 85 488L150 488Q160 488 160 478L160 10Q160 0 150 0L85 0M-1 552Q-12 546-12 556L-12 607Q-12 616-5 620L111 686Q118 691 125 686L241 620Q248 616 248 607L248 556Q248 546 237 552L118 611L-1 552Z"  horiz-adv-x="235" vert-adv-y="1000"  />

      
      <glyph glyph-name="unief" unicode="&#xef;" d="M85 0Q75 0 75 10L75 478Q75 488 85 488L150 488Q160 488 160 478L160 10Q160 0 150 0L85 0M33 570Q5 570-7 584.50Q-19 599-19 621L-19 631Q-19 654-7 668Q5 682 33 682Q61 682 73 668Q85 654 85 631L85 621Q85 599 73 584.50Q61 570 33 570M202 570Q174 570 162 584.50Q150 599 150 621L150 631Q150 654 162 668Q174 682 202 682Q230 682 242 668Q254 654 254 631L254 621Q254 599 242 584.50Q230 570 202 570Z"  horiz-adv-x="235" vert-adv-y="1000"  />

      
      <glyph glyph-name="uniec" unicode="&#xec;" d="M85 0Q75 0 75 10L75 478Q75 488 85 488L150 488Q160 488 160 478L160 10Q160 0 150 0L85 0M114 556Q107 556 103 562L20 684Q17 688 18.50 691.50Q20 695 25 695L95 695Q104 695 107 688L173 566Q175 562 174 559Q173 556 168 556L114 556Z"  horiz-adv-x="235" vert-adv-y="1000"  />

      
      <glyph glyph-name="uni0133" unicode="&#x0133;" d="M85 0Q75 0 75 10L75 478Q75 488 85 488L150 488Q160 488 160 478L160 10Q160 0 150 0L85 0M118 570Q89 570 76 585.50Q63 601 63 625L63 635Q63 659 76 674.50Q89 690 118 690Q147 690 160 674.50Q173 659 173 635L173 625Q173 601 160 585.50Q147 570 118 570M277-190Q273-192 269.50-191.50Q266-191 263-187L224-138Q221-133 222-130Q223-127 227-124Q253-106 271.50-79.50Q290-53 300-17.50Q310 18 310 64L310 478Q310 483 313 485.50Q316 488 320 488L385 488Q390 488 392.50 485.50Q395 483 395 478L395 59Q395-1 382.50-48Q370-95 344-130Q318-165 277-190M353 570Q324 570 311 585.50Q298 601 298 625L298 635Q298 659 311 674.50Q324 690 353 690Q382 690 395 674.50Q408 659 408 635L408 625Q408 601 395 585.50Q382 570 353 570Z"  horiz-adv-x="471" vert-adv-y="1000"  />

      
      <glyph glyph-name="uni012B" unicode="&#x012B;" d="M85 0Q75 0 75 10L75 478Q75 488 85 488L150 488Q160 488 160 478L160 10Q160 0 150 0L85 0M20 570Q10 570 10 580L10 632Q10 642 20 642L215 642Q225 642 225 632L225 580Q225 570 215 570L20 570Z"  horiz-adv-x="235" vert-adv-y="1000"  />

      
      <glyph glyph-name="uni012F" unicode="&#x012F;" d="M85 0Q75 0 75 10L75 478Q75 488 85 488L150 488Q160 488 160 478L160 10Q160 0 150 0L85 0M118 570Q89 570 76 585.50Q63 601 63 625L63 635Q63 659 76 674.50Q89 690 118 690Q147 690 160 674.50Q173 659 173 635L173 625Q173 601 160 585.50Q147 570 118 570M117-197Q66-197 42-174.50Q18-152 18-116L18-104Q18-63 48-28.50Q78 6 128 23L148 12L148 1Q120-13 105-37Q90-61 90-87L90-97Q90-116 99.50-125Q109-134 131-134Q139-134 144.50-134Q150-134 156-133Q165-132 165-140L165-184Q165-188 163.50-190.50Q162-193 157-194Q147-195 136.50-196Q126-197 117-197Z"  horiz-adv-x="235" vert-adv-y="1000"  />

      
      <glyph glyph-name="uni6a" unicode="&#x6a;" d="M42-190Q38-192 34.50-191.50Q31-191 28-187L-11-138Q-14-133-13-130Q-12-127-8-124Q18-106 36.50-79.50Q55-53 65-17.50Q75 18 75 64L75 478Q75 483 78 485.50Q81 488 85 488L150 488Q155 488 157.50 485.50Q160 483 160 478L160 59Q160-1 147.50-48Q135-95 109-130Q83-165 42-190M118 570Q89 570 76 585.50Q63 601 63 625L63 635Q63 659 76 674.50Q89 690 118 690Q147 690 160 674.50Q173 659 173 635L173 625Q173 601 160 585.50Q147 570 118 570Z"  horiz-adv-x="236" vert-adv-y="1000"  />

      
      <glyph glyph-name="uni0237" unicode="&#x0237;" d="M42-190Q38-192 34.50-191.50Q31-191 28-187L-11-138Q-14-133-13-130Q-12-127-8-124Q18-106 36.50-79.50Q55-53 65-17.50Q75 18 75 64L75 478Q75 483 78 485.50Q81 488 85 488L150 488Q155 488 157.50 485.50Q160 483 160 478L160 59Q160-1 147.50-48Q135-95 109-130Q83-165 42-190Z"  horiz-adv-x="236" vert-adv-y="1000"  />

      
      <glyph glyph-name="uni6b" unicode="&#x6b;" d="M85 0Q75 0 75 10L75 673Q75 683 85 683L150 683Q160 683 160 673L160 414Q160 391 160 368Q160 345 160 322Q160 299 159 276L160 276Q178 296 196.50 316Q215 336 234 356L352 483Q356 488 364 488L452 488Q459 488 460.50 484.50Q462 481 457 476L291 306L472 12Q475 7 473 3.50Q471 0 465 0L388 0Q381 0 376 7L230 243L160 172L160 10Q160 0 150 0L85 0Z"  horiz-adv-x="491" vert-adv-y="1000"  />

      
      <glyph glyph-name="uni0137" unicode="&#x0137;" d="M85 0Q75 0 75 10L75 673Q75 683 85 683L150 683Q160 683 160 673L160 414Q160 391 160 368Q160 345 160 322Q160 299 159 276L160 276Q178 296 196.50 316Q215 336 234 356L352 483Q356 488 364 488L452 488Q459 488 460.50 484.50Q462 481 457 476L291 306L472 12Q475 7 473 3.50Q471 0 465 0L388 0Q381 0 376 7L230 243L160 172L160 10Q160 0 150 0L85 0M227-231Q220-231 221-222L237-155Q221-150 214.50-140Q208-130 208-114L208-97Q208-78 220-67Q232-56 252-56Q278-56 289.50-67Q301-78 301-97L301-115Q301-128 299-140.50Q297-153 293-165L273-225Q271-231 263-231L227-231Z"  horiz-adv-x="491" vert-adv-y="1000"  />

      
      <glyph glyph-name="uni0138" unicode="&#x0138;" d="M85 0Q75 0 75 10L75 478Q75 488 85 488L150 488Q160 488 160 478L160 414Q160 391 160 368Q160 345 160 322Q160 299 159 276L160 276Q178 296 196.50 316Q215 336 234 356L352 483Q356 488 364 488L452 488Q459 488 460.50 484.50Q462 481 457 476L291 306L472 12Q475 7 473 3.50Q471 0 465 0L388 0Q381 0 376 7L230 243L160 172L160 10Q160 0 150 0L85 0Z"  horiz-adv-x="491" vert-adv-y="1000"  />

      
      <glyph glyph-name="uni6c" unicode="&#x6c;" d="M85 0Q75 0 75 10L75 673Q75 683 85 683L150 683Q160 683 160 673L160 10Q160 0 150 0L85 0Z"  horiz-adv-x="235" vert-adv-y="1000"  />

      
      <glyph glyph-name="uni013A" unicode="&#x013A;" d="M85 0Q75 0 75 10L75 673Q75 683 85 683L150 683Q160 683 160 673L160 10Q160 0 150 0L85 0M71 738Q66 738 65 741Q64 744 66 748L122 850Q126 857 132 857L205 857Q210 857 211.50 853.50Q213 850 210 845L138 744Q134 738 127 738L71 738Z"  horiz-adv-x="235" vert-adv-y="1000"  />

      
      </font>
</defs>
</svg>
