<svg width="32" height="32" viewBox="0 0 32 32" fill="none" xmlns="http://www.w3.org/2000/svg">
<g clip-path="url(#clip0_224_378)">
<rect width="32" height="32" rx="10" fill="#242424"/>
<path d="M10.4052 25C10.2185 25 10.1252 24.8973 10.1252 24.692V22.928C10.1252 22.7227 10.2185 22.62 10.4052 22.62H14.7452V9.628L10.6012 10.916C10.5079 10.9347 10.4332 10.9347 10.3772 10.916C10.3212 10.8787 10.2932 10.8133 10.2932 10.72V8.872C10.2932 8.72267 10.3585 8.62933 10.4892 8.592L16.4252 6.604C16.4999 6.58533 16.5652 6.576 16.6212 6.576C16.6959 6.55733 16.7705 6.548 16.8452 6.548H17.1252C17.3119 6.548 17.4052 6.64133 17.4052 6.828V22.62H21.2692C21.4559 22.62 21.5492 22.7227 21.5492 22.928V24.692C21.5492 24.8973 21.4559 25 21.2692 25H10.4052Z" fill="white"/>
</g>
<defs>
<clipPath id="clip0_224_378">
<rect width="32" height="32" fill="white"/>
</clipPath>
</defs>
</svg>
