<svg width="32" height="32" viewBox="0 0 32 32" fill="none" xmlns="http://www.w3.org/2000/svg">
<g clip-path="url(#clip0_224_381)">
<rect width="32" height="32" rx="10" fill="#242424"/>
<path d="M9.55444 25C9.3491 25 9.24644 24.8973 9.24644 24.692V22.676C9.24644 21.7987 9.4051 21.0147 9.72244 20.324C10.0584 19.6147 10.4971 18.9893 11.0384 18.448C11.5798 17.9067 12.1678 17.412 12.8024 16.964C13.4558 16.4973 14.0998 16.0587 14.7344 15.648C15.3878 15.2373 15.9851 14.8267 16.5264 14.416C17.0678 14.0053 17.4971 13.5667 17.8144 13.1C18.1504 12.6147 18.3184 12.0733 18.3184 11.476V10.916C18.3184 10.1693 18.0478 9.60933 17.5064 9.236C16.9651 8.844 16.1624 8.648 15.0984 8.648C14.0531 8.648 13.2784 8.88133 12.7744 9.348C12.2704 9.796 12.0184 10.44 12.0184 11.28C12.0184 11.4667 11.9251 11.56 11.7384 11.56H9.69444C9.50777 11.56 9.41444 11.4667 9.41444 11.28C9.39577 10.1973 9.61044 9.292 10.0584 8.564C10.5064 7.81733 11.1691 7.25733 12.0464 6.884C12.9424 6.51067 14.0438 6.324 15.3504 6.324C17.2358 6.324 18.6451 6.72533 19.5784 7.528C20.5118 8.312 20.9784 9.46933 20.9784 11C20.9784 11.9707 20.8104 12.8107 20.4744 13.52C20.1571 14.2107 19.7371 14.8173 19.2144 15.34C18.6918 15.8627 18.1038 16.3387 17.4504 16.768C16.8158 17.1787 16.1811 17.58 15.5464 17.972C14.9304 18.3453 14.3518 18.7467 13.8104 19.176C13.2878 19.6053 12.8678 20.1 12.5504 20.66C12.2331 21.2013 12.0744 21.8547 12.0744 22.62H20.5864C20.7918 22.62 20.8944 22.7227 20.8944 22.928V24.692C20.8944 24.8973 20.7918 25 20.5864 25H9.55444Z" fill="white"/>
</g>
<defs>
<clipPath id="clip0_224_381">
<rect width="32" height="32" fill="white"/>
</clipPath>
</defs>
</svg>
