<svg width="32" height="32" viewBox="0 0 32 32" fill="none" xmlns="http://www.w3.org/2000/svg">
<g clip-path="url(#clip0_224_389)">
<rect width="32" height="32" rx="10" fill="#242424"/>
<path d="M14.6954 25.336C13.4074 25.336 12.3247 25.1307 11.4474 24.72C10.5701 24.3093 9.91672 23.7307 9.48739 22.984C9.07672 22.2187 8.88072 21.3507 8.89939 20.38C8.89939 20.1747 8.99272 20.072 9.17939 20.072H11.1954C11.4007 20.072 11.5034 20.1747 11.5034 20.38C11.5034 21.2387 11.7647 21.892 12.2874 22.34C12.8287 22.788 13.6314 23.012 14.6954 23.012C15.8901 23.012 16.8141 22.76 17.4674 22.256C18.1207 21.752 18.4474 21.0427 18.4474 20.128V19.456C18.4474 18.56 18.1394 17.888 17.5234 17.44C16.9261 16.9733 16.0207 16.74 14.8074 16.74H12.4274C12.2407 16.74 12.1474 16.6467 12.1474 16.46V14.78C12.1474 14.5747 12.2407 14.472 12.4274 14.472H14.7794C15.8434 14.472 16.6461 14.2387 17.1874 13.772C17.7474 13.2867 18.0274 12.5867 18.0274 11.672V10.972C18.0274 10.188 17.7474 9.60933 17.1874 9.236C16.6461 8.844 15.8341 8.648 14.7514 8.648C13.6501 8.648 12.8381 8.85333 12.3154 9.264C11.7927 9.67467 11.5314 10.3373 11.5314 11.252C11.5314 11.4573 11.4287 11.56 11.2234 11.56H9.20739C9.13272 11.56 9.06739 11.532 9.01139 11.476C8.95539 11.42 8.92739 11.3453 8.92739 11.252C8.92739 9.628 9.42206 8.40533 10.4114 7.584C11.4194 6.744 12.9314 6.324 14.9474 6.324C16.9074 6.324 18.3541 6.70667 19.2874 7.472C20.2207 8.23733 20.6874 9.42267 20.6874 11.028C20.6874 12.204 20.4354 13.1653 19.9314 13.912C19.4461 14.64 18.7927 15.1347 17.9714 15.396V15.452C19.0354 15.8067 19.8194 16.3573 20.3234 17.104C20.8461 17.832 21.1074 18.7747 21.1074 19.932C21.1074 21.6867 20.5567 23.0307 19.4554 23.964C18.3727 24.8787 16.7861 25.336 14.6954 25.336Z" fill="white"/>
</g>
<defs>
<clipPath id="clip0_224_389">
<rect width="32" height="32" fill="white"/>
</clipPath>
</defs>
</svg>
