<svg width="32" height="32" viewBox="0 0 32 32" fill="none" xmlns="http://www.w3.org/2000/svg">
<g clip-path="url(#clip0_224_393)">
<rect width="32" height="32" rx="10" fill="#242424"/>
<path d="M17.3691 25C17.1824 25 17.0891 24.8973 17.0891 24.692V21.472H7.84906C7.6624 21.472 7.56906 21.3787 7.56906 21.192V20.94C7.56906 20.828 7.56906 20.7533 7.56906 20.716C7.58773 20.66 7.61573 20.5947 7.65306 20.52L15.0731 6.884C15.1664 6.73467 15.2877 6.66 15.4371 6.66H17.5651C17.6771 6.66 17.7517 6.688 17.7891 6.744C17.8451 6.8 17.8451 6.884 17.7891 6.996L11.1811 19.092H17.1171L17.2011 13.1C17.2011 12.9133 17.2944 12.82 17.4811 12.82H19.3851C19.5904 12.82 19.6931 12.9133 19.6931 13.1V19.092H21.7371C21.9424 19.092 22.0451 19.1947 22.0451 19.4V21.192C22.0451 21.3787 21.9424 21.472 21.7371 21.472H19.6931V24.692C19.6931 24.8973 19.5904 25 19.3851 25H17.3691Z" fill="white"/>
</g>
<defs>
<clipPath id="clip0_224_393">
<rect width="32" height="32" fill="white"/>
</clipPath>
</defs>
</svg>
